<?xml version="1.0" encoding="UTF-8"?>
<svg version="1.1" xmlns="http://www.w3.org/2000/svg" width="512" height="512">
<path d="M0 0 C0.97582031 -0.04253906 1.95164062 -0.08507813 2.95703125 -0.12890625 C16.71864407 2.81644498 30.72645798 21.9470365 38.13671875 33.19140625 C44.91716241 44.33716411 49.37991734 56.469872 50.1875 69.5625 C50.24035156 70.40683594 50.29320312 71.25117187 50.34765625 72.12109375 C50.76674048 85.55001011 48.13203702 98.51968794 42.1875 110.5625 C41.57648438 111.91021484 41.57648438 111.91021484 40.953125 113.28515625 C37.71648398 119.90123128 33.43204139 124.92604925 28.32592773 130.14819336 C25.71196584 132.82642959 23.7461837 135.16913463 22.1875 138.5625 C24.26473412 141.48355438 26.35034515 144.39852792 28.4375 147.3125 C29.02402344 148.1375 29.61054688 148.9625 30.21484375 149.8125 C30.78847656 150.61171875 31.36210937 151.4109375 31.953125 152.234375 C32.73864746 153.33410645 32.73864746 153.33410645 33.54003906 154.45605469 C35.27557655 156.67511477 37.18222918 158.58755244 39.1875 160.5625 C46.55297817 153.82847581 53.83934717 147.01880788 61.04016781 140.10876083 C64.38832238 136.90033624 67.75602902 133.72126772 71.1862793 130.60058594 C89.57050563 114.80966682 89.57050563 114.80966682 97.38063049 92.91656494 C97.33513621 88.35509043 96.98327503 83.90076842 96.42121887 79.37574768 C95.31358321 66.04326219 104.24592149 50.25765401 112.25 40 C113.54371497 38.50437576 114.85469975 37.0234017 116.1875 35.5625 C116.96287109 34.64984375 116.96287109 34.64984375 117.75390625 33.71875 C130.20984971 19.9828725 150.03719117 11.99335776 168.1875 10.5625 C172.65761205 10.37649834 177.12294044 10.29310277 181.59619141 10.26733398 C182.99050006 10.25577714 184.38476322 10.23526679 185.77880859 10.20581055 C193.7802909 10.0374276 200.37490699 9.91489054 207.1875 14.5625 C213.10541442 21.99782837 212.42977532 29.09214715 212.4375 38.1875 C212.43817474 38.89057281 212.43884949 39.59364563 212.43954468 40.31802368 C212.4160744 55.65903271 211.24599817 69.6190733 204.1875 83.5625 C203.69507813 84.54605469 203.20265625 85.52960938 202.6953125 86.54296875 C193.59927856 103.36410329 179.02532958 115.75923476 161.1875 122.5625 C160.14078125 122.9646875 159.0940625 123.366875 158.015625 123.78125 C151.72048705 125.81193966 146.84497499 126.76945584 140.28442383 125.95947266 C130.03928658 124.94531631 120.91947382 124.94250419 112.52771664 131.33357906 C104.45623809 138.05265887 97.36011142 145.83612741 90.30541992 153.59063721 C87.16434941 157.01159594 83.94206819 160.3542645 80.7265625 163.70507812 C74.4667206 170.25159901 68.29921476 176.87768564 62.1875 183.5625 C66.00064429 187.40752278 69.78068727 190.63792392 74.1875 193.75 C74.79078125 194.18763672 75.3940625 194.62527344 76.015625 195.07617188 C79.29458528 197.41064903 82.33931241 199.2579061 86.1875 200.5625 C86.81914062 199.87285156 87.45078125 199.18320313 88.1015625 198.47265625 C104.04031438 181.73007682 123.91922358 172.79634 147.1875 172.1875 C172.19323081 172.89627922 190.4856579 183.54106182 208.1875 200.5625 C208.70086914 201.05395508 209.21423828 201.54541016 209.74316406 202.05175781 C222.59351331 214.41504392 222.59351331 214.41504392 222.75 222.375 C222.79253906 223.35082031 222.83507812 224.32664063 222.87890625 225.33203125 C220.12470643 238.20052421 202.47427733 251.33831491 192.20703125 258.63671875 C180.1295948 266.33940461 166.64035049 271.93975599 152.1875 272.5625 C151.00220703 272.63984375 151.00220703 272.63984375 149.79296875 272.71875 C136.8092777 273.18592929 123.7593243 270.42043595 112.1875 264.5625 C111.20394531 264.07007813 110.22039062 263.57765625 109.20703125 263.0703125 C99.94464953 258.06167659 92.59215997 251.2210064 85.3984375 243.64453125 C77.8567434 235.74364643 69.60652349 229.5498014 60.66064453 223.30810547 C56.24423966 220.19089966 51.90698594 216.96628736 47.5625 213.75 C45.94534218 212.55594939 44.32815744 211.36193523 42.7109375 210.16796875 C41.53640779 209.29954752 40.36191957 208.43107017 39.1875 207.5625 C34.07908298 211.8387451 29.29640952 216.31474157 24.59985352 221.03662109 C23.87706711 221.75926147 23.1542807 222.48190186 22.40959167 223.22644043 C20.04281584 225.59390785 17.67959281 227.96488775 15.31640625 230.3359375 C13.66753154 231.98667907 12.01843458 233.63719867 10.36912537 235.2875061 C6.04495076 239.61548478 1.7237887 243.94645899 -2.59674072 248.27807617 C-7.0125387 252.70413376 -11.431196 257.12733481 -15.84960938 261.55078125 C-24.50669795 270.2185699 -33.16060481 278.88952769 -41.8125 287.5625 C-37.92680901 290.73297911 -33.92958587 293.40683384 -29.60546875 295.93359375 C-28.92124344 296.33780045 -28.23701813 296.74200714 -27.53205872 297.15846252 C-25.35683283 298.44262456 -23.17857909 299.72153649 -21 301 C-18.83690639 302.27341662 -16.67447229 303.54793674 -14.51272583 304.82363892 C-13.1282036 305.63987792 -11.7425398 306.454184 -10.35568237 307.26644897 C-6.84988221 309.32603562 -3.42899637 311.4572097 -0.05078125 313.72265625 C2.87936376 315.82162754 2.87936376 315.82162754 5.28466797 315.27319336 C7.76360728 314.34732829 8.86825923 313.03443173 10.625 311.0625 C24.56489589 296.60342736 44.25423114 287.70013398 64.31762695 287.26953125 C91.6169762 287.07075561 110.35921967 296.87417478 129.6237793 315.77807617 C130.49043213 316.63506104 131.35708496 317.4920459 132.25 318.375 C133.09667236 319.21200439 133.94334473 320.04900879 134.81567383 320.91137695 C135.60997803 321.71019287 136.40428223 322.50900879 137.22265625 323.33203125 C137.9381665 324.04979736 138.65367676 324.76756348 139.39086914 325.50708008 C142.61386617 329.19432182 143.49434856 332.07148685 143.5625 336.9375 C143.59085937 337.85273438 143.61921875 338.76796875 143.6484375 339.7109375 C141.68763488 351.84132659 123.50004903 365.76648416 114.11328125 372.76171875 C96.68924347 384.73154356 75.71293756 389.261954 54.84521484 386.22119141 C50.17730329 385.33260599 45.70128146 384.0380608 41.1875 382.5625 C40.26839844 382.27375 39.34929687 381.985 38.40234375 381.6875 C25.40459106 377.07340079 14.325768 367.39604279 5.13964844 357.31518555 C-1.84331733 349.84555899 -9.51822348 345.11957448 -18.3125 340.125 C-19.74733118 339.29435665 -21.18116296 338.46198468 -22.61401367 337.62792969 C-25.41562676 335.99824139 -28.22067203 334.37476669 -31.02880859 332.75634766 C-35.77261148 330.01509957 -40.45840526 327.18293702 -45.125 324.3125 C-45.82061035 323.88815674 -46.5162207 323.46381348 -47.23291016 323.02661133 C-50.25669204 321.17427488 -53.2475009 319.28960699 -56.19140625 317.3125 C-57.18011719 316.6525 -58.16882813 315.9925 -59.1875 315.3125 C-59.99960938 314.75046875 -60.81171875 314.1884375 -61.6484375 313.609375 C-63.70715024 312.36948846 -63.70715024 312.36948846 -65.74210739 312.81397152 C-68.14049399 313.68108275 -69.30892161 314.6890054 -71.10284424 316.49208069 C-71.7309903 317.11610275 -72.35913635 317.74012482 -73.00631714 318.38305664 C-73.68389069 319.07141602 -74.36146423 319.75977539 -75.05957031 320.46899414 C-76.1430928 321.55185951 -76.1430928 321.55185951 -77.24850464 322.65660095 C-79.63639008 325.04657783 -82.01347169 327.44700847 -84.390625 329.84765625 C-86.0433519 331.50597781 -87.69674202 333.16363864 -89.35076904 334.82066345 C-93.70408576 339.18543905 -98.04831874 343.55914864 -102.39074707 347.93475342 C-106.82277522 352.3974597 -111.2632993 356.85169424 -115.703125 361.30664062 C-124.41460567 370.0503039 -133.1165174 378.80342494 -141.8125 387.5625 C-134.24516901 392.92271441 -134.24516901 392.92271441 -126.46484375 397.96484375 C-125.54276123 398.53678467 -124.62067871 399.10872559 -123.6706543 399.69799805 C-122.70683838 400.29265869 -121.74302246 400.88731934 -120.75 401.5 C-112.12591144 406.8544388 -103.54285592 412.26686848 -95 417.75 C-83.66767621 425.01789463 -83.66767621 425.01789463 -72.3125 432.25 C-71.21071411 432.95322388 -71.21071411 432.95322388 -70.08666992 433.6706543 C-65.09764661 436.82969811 -60.00127848 439.74432572 -54.8125 442.5625 C-54.02488281 441.716875 -53.23726562 440.87125 -52.42578125 440 C-36.83645343 423.62020696 -17.99131165 413.89311274 4.9440918 413.20898438 C30.18228822 412.9738376 49.47483292 423.32267797 67.1875 440.5625 C67.76806152 441.12259766 68.34862305 441.68269531 68.94677734 442.25976562 C70.74370386 443.99819655 72.53026666 445.74651635 74.3125 447.5 C74.86929443 448.04358154 75.42608887 448.58716309 75.99975586 449.1472168 C80.54871342 453.68768882 82.47230817 456.49780359 82.5625 462.9375 C82.59085937 463.85273438 82.61921875 464.76796875 82.6484375 465.7109375 C81.43119292 473.2413489 74.30314986 478.8191852 69.14550781 483.97509766 C67.70815453 485.41678322 66.28756886 486.87364803 64.8671875 488.33203125 C55.36150619 497.95482988 45.03126165 505.1703328 32.1875 509.5625 C30.81851563 510.04203125 30.81851563 510.04203125 29.421875 510.53125 C8.42157209 516.5955086 -14.19805362 513.0009207 -33.109375 502.73828125 C-40.10185301 498.74334014 -45.83706014 493.66708587 -51.375 487.85546875 C-60.27161298 478.5451644 -69.15415881 471.60751982 -80.24707031 465.09277344 C-84.83581663 462.35559587 -89.31580073 459.44745658 -93.8125 456.5625 C-95.67655049 455.37416376 -97.54112998 454.18665688 -99.40625 453 C-100.31375 452.4225 -101.22125 451.845 -102.15625 451.25 C-106.20303834 448.67909917 -110.25728858 446.12008697 -114.3125 443.5625 C-122.07932652 438.66402931 -129.82808233 433.73760844 -137.57275391 428.80419922 C-146.6371862 423.03240947 -155.72236231 417.29369536 -164.8125 411.5625 C-170.70400789 416.47208991 -176.05271217 421.75306558 -181.3828125 427.25976562 C-189.15287469 435.16516701 -189.15287469 435.16516701 -194.71484375 435.99609375 C-200.86321801 436.00400672 -205.12564296 436.0090054 -209.8125 431.5625 C-212.4115635 427.89618821 -213.28678036 425.23743905 -213.375 420.75 C-213.43880859 419.28626953 -213.43880859 419.28626953 -213.50390625 417.79296875 C-211.67774321 409.26055727 -203.43035059 402.93109691 -197.4375 397.0625 C-196.60605469 396.24007813 -195.77460938 395.41765625 -194.91796875 394.5703125 C-192.88734018 392.56302449 -190.85216833 390.56059466 -188.8125 388.5625 C-192.51681879 381.57174768 -196.43761918 374.84001036 -200.8125 368.25 C-201.95797056 366.50582485 -203.10246682 364.76100954 -204.24609375 363.015625 C-204.83245605 362.12166016 -205.41881836 361.22769531 -206.02294922 360.30664062 C-209.00937769 355.72717869 -211.94368728 351.11486981 -214.875 346.5 C-215.46087891 345.57791748 -216.04675781 344.65583496 -216.65039062 343.70581055 C-220.38004906 337.83035667 -224.09826584 331.94771271 -227.8125 326.0625 C-229.28407434 323.73176408 -230.75588268 321.40117651 -232.22802734 319.07080078 C-233.34589114 317.30116555 -234.46336759 315.53128559 -235.58056641 313.76123047 C-237.42618074 310.83921127 -239.27525506 307.91940574 -241.125 305 C-241.96901367 303.66195312 -241.96901367 303.66195312 -242.83007812 302.296875 C-244.47346143 299.70694937 -246.13578101 297.13095994 -247.8125 294.5625 C-248.36679688 293.71034912 -248.92109375 292.85819824 -249.4921875 291.98022461 C-253.49574907 286.02561076 -257.9816071 281.16433479 -263.1875 276.25 C-273.07832089 266.61721907 -280.98196027 256.68665021 -285.8125 243.5625 C-286.204375 242.53769531 -286.59625 241.51289063 -287 240.45703125 C-293.88962326 219.28579311 -290.71297429 196.65182078 -280.984375 177.07421875 C-275.56784267 167.73413737 -267.66768833 160.10350953 -260.0625 152.5625 C-259.12075953 151.61361283 -258.17935178 150.66439534 -257.23828125 149.71484375 C-255.89056641 148.37099609 -255.89056641 148.37099609 -254.515625 147 C-253.70770508 146.19433594 -252.89978516 145.38867188 -252.06738281 144.55859375 C-248.27957472 141.20550595 -245.46901679 140.25796942 -240.4375 140.1875 C-239.52226562 140.15914062 -238.60703125 140.13078125 -237.6640625 140.1015625 C-225.48708764 142.06989542 -212.39498812 159.58997261 -205.5234375 169.03149414 C-203.85060467 171.48621083 -202.30617827 173.99535082 -200.8125 176.5625 C-200.07193359 177.82900391 -200.07193359 177.82900391 -199.31640625 179.12109375 C-189.33969026 197.62390531 -188.21238662 219.54266147 -193.8125 239.5625 C-198.77352599 255.0292281 -208.07847348 266.72192727 -219.8125 277.5625 C-215.28301105 286.5801127 -209.76570444 294.89542465 -204.23828125 303.3203125 C-201.06474575 308.16033269 -197.9561941 313.03830314 -194.875 317.9375 C-189.31102103 326.77735391 -183.71717053 335.59767648 -178.09765625 344.40234375 C-176.04830964 347.61427194 -174.01311264 350.83408806 -171.99609375 354.06640625 C-171.57932373 354.72922607 -171.16255371 355.3920459 -170.7331543 356.07495117 C-169.64578293 357.80499416 -168.56481036 359.53905442 -167.484375 361.2734375 C-166.93265625 362.02882813 -166.3809375 362.78421875 -165.8125 363.5625 C-163.11711626 363.5625 -162.64976985 362.657769 -160.75593567 360.78009033 C-160.12909378 360.16322357 -159.50225189 359.54635681 -158.85641479 358.91079712 C-158.17007965 358.22512665 -157.48374451 357.53945618 -156.77661133 356.83300781 C-156.05294876 356.11766876 -155.32928619 355.40232971 -154.58369446 354.66531372 C-152.18177683 352.28758692 -149.7876767 349.90217879 -147.39453125 347.515625 C-145.73597613 345.86602843 -144.07733967 344.21651365 -142.41862488 342.56707764 C-138.93882677 339.10379624 -135.46347199 335.63611991 -131.99047852 332.16601562 C-127.52963475 327.71056193 -123.05286387 323.27148704 -118.57194996 318.83623123 C-115.13985623 315.43381137 -111.71900278 312.02026134 -108.30121422 308.60347748 C-106.65498747 306.96147133 -105.00461761 305.3236085 -103.35013771 303.68991852 C-101.04156205 301.40805797 -98.74916051 299.11108788 -96.46020508 296.80957031 C-95.42159332 295.79320999 -95.42159332 295.79320999 -94.36199951 294.75631714 C-93.7436171 294.12817108 -93.12523468 293.50002502 -92.4881134 292.85284424 C-91.9440878 292.31082996 -91.4000622 291.76881569 -90.83955097 291.21037674 C-89.58635225 289.58699896 -89.58635225 289.58699896 -90.08045483 287.48368454 C-90.91941019 285.28192413 -91.94812311 283.36813003 -93.15625 281.34375 C-93.65237793 280.50755127 -94.14850586 279.67135254 -94.65966797 278.80981445 C-95.47781982 277.4498938 -95.47781982 277.4498938 -96.3125 276.0625 C-96.87984863 275.11141357 -97.44719727 274.16032715 -98.03173828 273.18041992 C-99.95127312 269.96995026 -101.88057391 266.76552772 -103.8125 263.5625 C-104.16598511 262.9759967 -104.51947021 262.38949341 -104.88366699 261.78521729 C-107.47964181 257.47859425 -110.08147407 253.17554776 -112.6875 248.875 C-113.04126709 248.29089355 -113.39503418 247.70678711 -113.75952148 247.10498047 C-115.45921729 244.30097592 -117.16618528 241.50178069 -118.88305664 238.70825195 C-120.13088412 236.67380211 -121.36541837 234.63111263 -122.58374023 232.57885742 C-126.43361319 226.2361192 -130.71175198 221.29604069 -136.125 216.25 C-152.70621338 200.1705417 -163.51774304 181.9265209 -164.21533203 158.26367188 C-164.37921765 144.01716431 -162.2736472 132.04585096 -156.0625 119.1875 C-155.76408203 118.5694751 -155.46566406 117.9514502 -155.15820312 117.31469727 C-149.87733617 107.15118824 -141.61753297 99.04582644 -133.5625 91.0625 C-132.67820313 90.17046875 -131.79390625 89.2784375 -130.8828125 88.359375 C-130.02945313 87.50859375 -129.17609375 86.6578125 -128.296875 85.78125 C-127.53084961 85.01748047 -126.76482422 84.25371094 -125.97558594 83.46679688 C-122.23472198 80.17348549 -119.39274322 79.25690117 -114.4375 79.1875 C-113.52226562 79.15914063 -112.60703125 79.13078125 -111.6640625 79.1015625 C-99.61049373 81.04994759 -85.79139358 99.10631004 -78.6484375 108.53125 C-66.03269228 126.65149474 -62.0019731 148.63091608 -65.46484375 170.27734375 C-68.85849149 187.63409393 -77.96649463 200.64322994 -89.9921875 213.30078125 C-92.26780934 216.115468 -92.26780934 216.115468 -92.8125 219.5625 C-91.65261292 222.01956231 -90.45835861 224.19930374 -89.03515625 226.49609375 C-88.63098984 227.16987564 -88.22682343 227.84365753 -87.81040955 228.53785706 C-86.51014272 230.69912001 -85.19290399 232.84945647 -83.875 235 C-83.02166015 236.41273174 -82.1694348 237.82613731 -81.31835938 239.24023438 C-78.83420774 243.35862556 -76.32769891 247.46301084 -73.8125 251.5625 C-73.40908386 252.22002258 -73.00566772 252.87754517 -72.59002686 253.55499268 C-70.33550194 257.22703671 -68.07615876 260.89607736 -65.8125 264.5625 C-60.70408298 260.2862549 -55.92140952 255.81025843 -51.22485352 251.08837891 C-50.50206711 250.36573853 -49.7792807 249.64309814 -49.03459167 248.89855957 C-46.66781584 246.53109215 -44.30459281 244.16011225 -41.94140625 241.7890625 C-40.29253154 240.13832093 -38.64343458 238.48780133 -36.99412537 236.8374939 C-32.66995076 232.50951522 -28.3487887 228.17854101 -24.02825928 223.84692383 C-19.6124613 219.42086624 -15.193804 214.99766519 -10.77539062 210.57421875 C-2.11830205 201.9064301 6.53560481 193.23547231 15.1875 184.5625 C14.25239789 183.15280905 13.31633443 181.74375578 12.37988281 180.33496094 C11.85871887 179.550224 11.33755493 178.76548706 10.80059814 177.95697021 C6.62504113 171.75880618 2.17632145 165.74921945 -2.23876953 159.72070312 C-3.58832546 157.86993143 -4.91971701 156.00800165 -6.24609375 154.140625 C-11.25761112 147.29647303 -16.79892759 141.52519585 -22.875 135.625 C-37.89756432 120.9793073 -48.495132 102.95974992 -49.8125 81.5625 C-49.89177734 80.27859375 -49.89177734 80.27859375 -49.97265625 78.96875 C-50.71595497 54.92465242 -40.78711826 34.92036843 -24.8125 17.5625 C-22.38649239 14.98809651 -19.92496015 12.45251114 -17.4375 9.9375 C-16.85484375 9.34549805 -16.2721875 8.75349609 -15.671875 8.14355469 C-10.85973699 3.36745228 -7.06401685 0.1388732 0 0 Z " fill="#41D293" transform="translate(289.8125,-0.5625)"/>
<path d="M0 0 C3 1 3 1 4.6640625 3.6328125 C7.03466833 9.72201572 6.44985134 16.44546937 6.375 22.875 C6.36851944 23.91462387 6.36851944 23.91462387 6.36190796 24.97525024 C6.2502648 40.19989798 4.99883065 54.1744411 -2 68 C-2.49242187 68.98355469 -2.98484375 69.96710938 -3.4921875 70.98046875 C-12.58822144 87.80160329 -27.16217042 100.19673476 -45 107 C-46.04671875 107.4021875 -47.0934375 107.804375 -48.171875 108.21875 C-54.46701295 110.24943966 -59.34252501 111.20695584 -65.90307617 110.39697266 C-76.14821342 109.38281631 -85.26802618 109.38000419 -93.65978336 115.77107906 C-101.73126191 122.49015887 -108.82738858 130.27362741 -115.88208008 138.02813721 C-119.02315059 141.44909594 -122.24543181 144.7917645 -125.4609375 148.14257812 C-131.7207794 154.68909901 -137.88828524 161.31518564 -144 168 C-140.18685571 171.84502278 -136.40681273 175.07542392 -132 178.1875 C-131.39671875 178.62513672 -130.7934375 179.06277344 -130.171875 179.51367188 C-126.89291472 181.84814903 -123.84818759 183.6954061 -120 185 C-119.36835938 184.31035156 -118.73671875 183.62070313 -118.0859375 182.91015625 C-102.14718562 166.16757682 -82.26827642 157.23384 -59 156.625 C-33.99426919 157.33377922 -15.7018421 167.97856182 2 185 C2.51336914 185.49145508 3.02673828 185.98291016 3.55566406 186.48925781 C16.40601331 198.85254392 16.40601331 198.85254392 16.5625 206.8125 C16.62630859 208.27623047 16.62630859 208.27623047 16.69140625 209.76953125 C13.93720643 222.63802421 -3.71322267 235.77581491 -13.98046875 243.07421875 C-26.0579052 250.77690461 -39.54714951 256.37725599 -54 257 C-55.18529297 257.07734375 -55.18529297 257.07734375 -56.39453125 257.15625 C-69.3782223 257.62342929 -82.4281757 254.85793595 -94 249 C-95.47533203 248.26136719 -95.47533203 248.26136719 -96.98046875 247.5078125 C-106.24285047 242.49917659 -113.59534003 235.6585064 -120.7890625 228.08203125 C-128.3307566 220.18114643 -136.58097651 213.9873014 -145.52685547 207.74560547 C-149.94326034 204.62839966 -154.28051406 201.40378736 -158.625 198.1875 C-160.24215782 196.99344939 -161.85934256 195.79943523 -163.4765625 194.60546875 C-164.65109221 193.73704752 -165.82558043 192.86857017 -167 192 C-172.10841702 196.2762451 -176.89109048 200.75224157 -181.58764648 205.47412109 C-182.31043289 206.19676147 -183.0332193 206.91940186 -183.77790833 207.66394043 C-186.14468416 210.03140785 -188.50790719 212.40238775 -190.87109375 214.7734375 C-192.51996846 216.42417907 -194.16906542 218.07469867 -195.81837463 219.7250061 C-200.14254924 224.05298478 -204.4637113 228.38395899 -208.78424072 232.71557617 C-213.2000387 237.14163376 -217.618696 241.56483481 -222.03710938 245.98828125 C-230.69419795 254.6560699 -239.34810481 263.32702769 -248 272 C-244.11430901 275.17047911 -240.11708587 277.84433384 -235.79296875 280.37109375 C-235.10874344 280.77530045 -234.42451813 281.17950714 -233.71955872 281.59596252 C-231.54433283 282.88012456 -229.36607909 284.15903649 -227.1875 285.4375 C-225.02440639 286.71091662 -222.86197229 287.98543674 -220.70022583 289.26113892 C-219.3157036 290.07737792 -217.9300398 290.891684 -216.54318237 291.70394897 C-213.03738221 293.76353562 -209.61649637 295.8947097 -206.23828125 298.16015625 C-203.30813624 300.25912754 -203.30813624 300.25912754 -200.90283203 299.71069336 C-198.42389272 298.78482829 -197.31924077 297.47193173 -195.5625 295.5 C-181.62260411 281.04092736 -161.93326886 272.13763398 -141.86987305 271.70703125 C-114.5705238 271.50825561 -95.82828033 281.31167478 -76.5637207 300.21557617 C-75.69706787 301.07256104 -74.83041504 301.9295459 -73.9375 302.8125 C-73.09082764 303.64950439 -72.24415527 304.48650879 -71.37182617 305.34887695 C-70.57752197 306.14769287 -69.78321777 306.94650879 -68.96484375 307.76953125 C-68.2493335 308.48729736 -67.53382324 309.20506348 -66.79663086 309.94458008 C-63.57363383 313.63182182 -62.69315144 316.50898685 -62.625 321.375 C-62.59664063 322.29023438 -62.56828125 323.20546875 -62.5390625 324.1484375 C-64.49986512 336.27882659 -82.68745097 350.20398416 -92.07421875 357.19921875 C-109.49825653 369.16904356 -130.47456244 373.699454 -151.34228516 370.65869141 C-156.01019671 369.77010599 -160.48621854 368.4755608 -165 367 C-165.91910156 366.71125 -166.83820313 366.4225 -167.78515625 366.125 C-180.78290894 361.51090079 -191.861732 351.83354279 -201.04785156 341.75268555 C-208.03081733 334.28305899 -215.70572348 329.55707448 -224.5 324.5625 C-225.93483118 323.73185665 -227.36866296 322.89948468 -228.80151367 322.06542969 C-231.60312676 320.43574139 -234.40817203 318.81226669 -237.21630859 317.19384766 C-241.96011148 314.45259957 -246.64590526 311.62043702 -251.3125 308.75 C-252.00811035 308.32565674 -252.7037207 307.90131348 -253.42041016 307.46411133 C-256.44419204 305.61177488 -259.4350009 303.72710699 -262.37890625 301.75 C-263.36761719 301.09 -264.35632813 300.43 -265.375 299.75 C-266.18710937 299.18796875 -266.99921875 298.6259375 -267.8359375 298.046875 C-269.89465024 296.80698846 -269.89465024 296.80698846 -271.92960739 297.25147152 C-274.32799399 298.11858275 -275.49642161 299.1265054 -277.29034424 300.92958069 C-277.9184903 301.55360275 -278.54663635 302.17762482 -279.19381714 302.82055664 C-279.87139069 303.50891602 -280.54896423 304.19727539 -281.24707031 304.90649414 C-282.3305928 305.98935951 -282.3305928 305.98935951 -283.43600464 307.09410095 C-285.82389008 309.48407783 -288.20097169 311.88450847 -290.578125 314.28515625 C-292.2308519 315.94347781 -293.88424202 317.60113864 -295.53826904 319.25816345 C-299.89158576 323.62293905 -304.23581874 327.99664864 -308.57824707 332.37225342 C-313.01027522 336.8349597 -317.4507993 341.28919424 -321.890625 345.74414062 C-330.60210567 354.4878039 -339.3040174 363.24092494 -348 372 C-340.43266901 377.36021441 -340.43266901 377.36021441 -332.65234375 382.40234375 C-331.73026123 382.97428467 -330.80817871 383.54622559 -329.8581543 384.13549805 C-328.41243042 385.02748901 -328.41243042 385.02748901 -326.9375 385.9375 C-318.31341144 391.2919388 -309.73035592 396.70436848 -301.1875 402.1875 C-289.85517621 409.45539463 -289.85517621 409.45539463 -278.5 416.6875 C-277.39821411 417.39072388 -277.39821411 417.39072388 -276.27416992 418.1081543 C-271.28514661 421.26719811 -266.18877848 424.18182572 -261 427 C-260.21238281 426.154375 -259.42476562 425.30875 -258.61328125 424.4375 C-243.02395343 408.05770696 -224.17881165 398.33061274 -201.2434082 397.64648438 C-176.00521178 397.4113376 -156.71266708 407.76017797 -139 425 C-138.41943848 425.56009766 -137.83887695 426.12019531 -137.24072266 426.69726562 C-135.44379614 428.43569655 -133.65723334 430.18401635 -131.875 431.9375 C-131.31820557 432.48108154 -130.76141113 433.02466309 -130.18774414 433.5847168 C-125.63878658 438.12518882 -123.71519183 440.93530359 -123.625 447.375 C-123.59664063 448.29023438 -123.56828125 449.20546875 -123.5390625 450.1484375 C-124.75630708 457.6788489 -131.88435014 463.2566852 -137.04199219 468.41259766 C-138.47934547 469.85428322 -139.89993114 471.31114803 -141.3203125 472.76953125 C-150.82599381 482.39232988 -161.15623835 489.6078328 -174 494 C-175.36898437 494.47953125 -175.36898437 494.47953125 -176.765625 494.96875 C-197.76592791 501.0330086 -220.38555362 497.4384207 -239.296875 487.17578125 C-246.28935301 483.18084014 -252.02456014 478.10458587 -257.5625 472.29296875 C-266.45911298 462.9826644 -275.34165881 456.04501982 -286.43457031 449.53027344 C-291.02331663 446.79309587 -295.50330073 443.88495658 -300 441 C-301.86405049 439.81166376 -303.72862998 438.62415688 -305.59375 437.4375 C-306.50125 436.86 -307.40875 436.2825 -308.34375 435.6875 C-312.39053834 433.11659917 -316.44478858 430.55758697 -320.5 428 C-328.26682652 423.10152931 -336.01558233 418.17510844 -343.76025391 413.24169922 C-352.8246862 407.46990947 -361.90986231 401.73119536 -371 396 C-376.89150789 400.90958991 -382.24021217 406.19056558 -387.5703125 411.69726562 C-395.34584175 419.6082293 -395.34584175 419.6082293 -400.9375 420.43359375 C-401.948125 420.43488281 -402.95875 420.43617188 -404 420.4375 C-405.5159375 420.46650391 -405.5159375 420.46650391 -407.0625 420.49609375 C-410.67356828 419.88624578 -412.24912278 418.33830362 -415 416 C-413.71886155 414.71943113 -413.71886155 414.71943113 -412.41184151 413.41299218 C-374.78521076 375.80302421 -337.15919699 338.19243908 -299.53634644 300.57868958 C-298.96708858 300.00956978 -298.39783073 299.44044998 -297.81132264 298.85408413 C-285.44093391 286.48668805 -273.07065638 274.11918074 -260.70049346 261.75155879 C-254.6344968 255.68680951 -248.56847556 249.62208482 -242.50244141 243.55737305 C-241.89878648 242.95384888 -241.29513155 242.35032471 -240.67318404 241.72851192 C-221.093795 222.15338707 -201.51278206 202.57988756 -181.93092969 183.00722691 C-161.81432513 162.90004797 -141.69935329 142.79123712 -121.58644542 122.68036041 C-118.74807499 119.84227815 -115.90968582 117.00421462 -113.07128525 114.16616249 C-112.5126273 113.60757197 -111.95396935 113.04898144 -111.37838237 112.47346393 C-102.3719201 103.4681851 -93.36372944 94.46463712 -84.35489721 85.46172925 C-75.30623989 76.4189491 -66.25939173 67.37436224 -57.2144071 58.32790848 C-51.83526009 52.94799873 -46.45471162 47.56949937 -41.07217914 42.19297669 C-37.06111101 38.18608274 -33.05263424 34.17660493 -29.04518901 30.1660879 C-27.41750769 28.53798149 -25.7889681 26.91073261 -24.15951563 25.28439882 C-21.95588065 23.08473868 -19.75530624 20.88206269 -17.55551338 18.67856121 C-16.91261185 18.03828669 -16.26971032 17.39801218 -15.60732692 16.7383354 C-15.02373179 16.15249297 -14.44013665 15.56665054 -13.83885682 14.96305531 C-13.3350394 14.45939388 -12.83122198 13.95573244 -12.31213737 13.43680854 C-10.77465822 11.82610017 -10.77465822 11.82610017 -9 9 C-8.34 9 -7.68 9 -7 9 C-7 8.34 -7 7.68 -7 7 C-5.01739574 5.31267723 -3.0167658 3.64633943 -1 2 C-0.67 1.34 -0.34 0.68 0 0 Z " fill="#01AB95" transform="translate(496,15)"/>
</svg>
