<?xml version="1.0" encoding="iso-8859-1"?>
<!-- Uploaded to: SVG Repo, www.svgrepo.com, Generator: SVG Repo Mixer Tools -->
<svg height="800px" width="800px" version="1.1" id="Layer_1" xmlns="http://www.w3.org/2000/svg" xmlns:xlink="http://www.w3.org/1999/xlink" 
	 viewBox="0 0 511.999 511.999" xml:space="preserve">
<path style="fill:#F2B844;" d="M403.065,81.145c-5.657,0-11.398-1.187-16.866-3.699c-9.846-4.523-17.342-12.608-21.107-22.767
	c-3.764-10.159-3.346-21.177,1.175-31.023c4.52-9.845,12.606-17.342,22.766-21.107c10.159-3.765,21.176-3.348,31.023,1.174
	c20.325,9.334,29.268,33.464,19.933,53.79l0,0C433.165,72.37,418.435,81.145,403.065,81.145z M403.138,18.106
	c-2.635,0-5.274,0.469-7.819,1.411c-5.627,2.086-10.105,6.237-12.609,11.69c-2.504,5.454-2.736,11.557-0.65,17.184
	S388.297,58.495,393.75,61c11.256,5.171,24.624,0.217,29.794-11.041l0,0c5.169-11.259,0.217-24.624-11.041-29.793
	C409.515,18.796,406.331,18.106,403.138,18.106z M431.767,53.737h0.012H431.767z"/>
<path style="fill:#FCC447;" d="M284.133,456.309c-3.517,7.657-8.342,14.319-14.08,19.817c-18.71,17.91-47.17,23.604-72.143,12.135
	c-24.973-11.469-39.202-36.766-37.808-62.628c0.432-7.936,2.339-15.936,5.856-23.595L284.133,456.309z"/>
<g>
	<path style="fill:#F2B844;" d="M284.133,456.309c-3.517,7.657-8.342,14.319-14.08,19.817l-109.951-50.494
		c0.432-7.936,2.339-15.936,5.856-23.595L284.133,456.309z"/>
	<path style="fill:#F2B844;" d="M198.517,416.99l-32.558-14.952c-14.986,32.63-0.679,71.237,31.952,86.223
		c5.648,2.594,11.478,4.291,17.331,5.186C193.777,475.027,186.126,443.972,198.517,416.99z"/>
</g>
<path style="fill:#FCC447;" d="M389.974,69.224c-78.145-35.888-169.326-4.377-218.533,102.771l-20.455,44.542
	c-15.164,33.021-57.887,58.939-96.618,76.548c-25.741,11.703-25.906,48.172-0.21,59.973l169.682,77.925l169.682,77.924
	c25.696,11.801,53.25-12.092,45.353-39.241c-11.883-40.852-20.065-90.148-4.899-123.17l20.455-44.542
	C503.637,194.807,468.119,105.111,389.974,69.224z"/>
<path style="fill:#F2B844;" d="M108.632,318.006c38.731-17.608,81.454-43.528,96.618-76.548l20.455-44.542
	c43.362-94.423,119.32-130.095,190.229-112.68c-8.008-5.719-16.679-10.749-25.96-15.011
	c-78.145-35.889-169.326-4.378-218.532,102.77l-20.455,44.542c-15.164,33.02-57.887,58.939-96.618,76.548
	c-25.741,11.703-25.906,48.172-0.21,59.973c0,0,24.171,11.1,54.264,24.92C82.726,366.178,82.892,329.708,108.632,318.006z"/>
</svg>