<?xml version="1.0" encoding="UTF-8"?>
<svg version="1.1" xmlns="http://www.w3.org/2000/svg" width="512" height="512">
<path d="M0 0 C0.99261841 0.00215515 1.98523682 0.0043103 3.00793457 0.00653076 C17.83440163 0.05816285 32.35262639 0.38658718 46.9375 3.3125 C48.42540039 3.61051514 48.42540039 3.61051514 49.94335938 3.91455078 C88.96766362 12.02941778 125.43080754 27.74490085 156.9375 52.3125 C157.82179688 52.98539063 158.70609375 53.65828125 159.6171875 54.3515625 C175.20737101 66.4551235 189.81954477 80.75418497 201.9375 96.3125 C203.08412109 97.71628906 203.08412109 97.71628906 204.25390625 99.1484375 C227.50995898 128.19050656 243.72853386 163.69537049 251.75 199.9375 C251.93264404 200.75702148 252.11528809 201.57654297 252.3034668 202.42089844 C256.0027571 220.3073515 257.46393893 238.01299489 257.3125 256.25 C257.30552094 257.75812759 257.30552094 257.75812759 257.29840088 259.29672241 C257.21979258 273.80398411 256.92154929 288.06520628 253.9375 302.3125 C253.63948486 303.77478027 253.63948486 303.77478027 253.33544922 305.26660156 C243.21482806 353.6484774 221.2983123 397.63678269 186.9375 433.3125 C186.30537598 433.97185547 185.67325195 434.63121094 185.02197266 435.31054688 C175.87752521 444.79880305 166.58015991 453.5387044 155.9375 461.3125 C154.78644983 462.17056152 153.63540823 463.02863451 152.484375 463.88671875 C144.29474019 469.92427396 135.79211724 475.30707302 126.9375 480.3125 C126.23028809 480.7146875 125.52307617 481.116875 124.79443359 481.53125 C101.65904164 494.5566741 76.48787591 503.30551461 50.5 508.625 C49.78110596 508.77235596 49.06221191 508.91971191 48.3215332 509.0715332 C33.64589502 511.86090125 19.12081162 512.66142619 4.21020508 512.62817383 C1.27061513 512.6250221 -1.6679558 512.64854926 -4.60742188 512.67382812 C-17.98056192 512.71848737 -30.87666711 511.51301542 -44.0625 509.3125 C-45.76805054 509.03031616 -45.76805054 509.03031616 -47.50805664 508.74243164 C-90.77552759 500.97044532 -131.82543216 480.98345309 -165.0625 452.3125 C-165.80757813 451.67828125 -166.55265625 451.0440625 -167.3203125 450.390625 C-180.82529833 438.57948485 -193.49668743 425.82889772 -204.0625 411.3125 C-204.91899066 410.16255169 -205.77576433 409.01281411 -206.6328125 407.86328125 C-212.67284209 399.67315742 -218.05617614 391.16870382 -223.0625 382.3125 C-223.4646875 381.60528809 -223.866875 380.89807617 -224.28125 380.16943359 C-237.3066741 357.03404164 -246.05551461 331.86287591 -251.375 305.875 C-251.52235596 305.15610596 -251.66971191 304.43721191 -251.8215332 303.6965332 C-254.79539088 288.05024391 -255.43550362 272.57681954 -255.375 256.6875 C-255.37284485 255.66959381 -255.3706897 254.65168762 -255.36846924 253.60293579 C-255.31879854 238.99386477 -255.06790191 224.66174147 -252.0625 210.3125 C-251.86382324 209.33764648 -251.66514648 208.36279297 -251.46044922 207.35839844 C-241.33982806 158.9765226 -219.4233123 114.98821731 -185.0625 79.3125 C-184.43037598 78.65314453 -183.79825195 77.99378906 -183.14697266 77.31445312 C-174.00252521 67.82619695 -164.70515991 59.0862956 -154.0625 51.3125 C-152.91144983 50.45443848 -151.76040823 49.59636549 -150.609375 48.73828125 C-142.41974019 42.70072604 -133.91711724 37.31792698 -125.0625 32.3125 C-124.35528809 31.9103125 -123.64807617 31.508125 -122.91943359 31.09375 C-99.78404164 18.0683259 -74.61287591 9.31948539 -48.625 4 C-47.90610596 3.85264404 -47.18721191 3.70528809 -46.4465332 3.5534668 C-30.98940107 0.61556182 -15.69740187 -0.06136669 0 0 Z M-31.0625 95.3125 C-32.31670174 98.00229629 -32.40738318 100.3752449 -32.0625 103.3125 C-30.38147038 106.80386922 -29.22753817 108.74234169 -25.71897888 110.45939636 C-23.04336206 111.31864597 -20.98251705 111.57150018 -18.18383789 111.5871582 C-17.2425856 111.59669022 -16.30133331 111.60622223 -15.33155823 111.61604309 C-14.32624557 111.61513168 -13.32093292 111.61422028 -12.28515625 111.61328125 C-11.24105087 111.61756638 -10.1969455 111.6218515 -9.12120056 111.62626648 C-6.9165011 111.63200083 -4.71178272 111.63251664 -2.50708008 111.62817383 C0.85954162 111.62501451 4.22528378 111.64848269 7.59179688 111.67382812 C9.73697806 111.67610132 11.8821616 111.67680452 14.02734375 111.67578125 C15.03063217 111.684991 16.03392059 111.69420074 17.06761169 111.70368958 C22.44202436 111.6682428 26.31261633 111.37276483 30.9375 108.3125 C33.53982515 105.37439095 34.18769085 103.14572467 34 99.3125 C33.75145516 96.15151952 32.7806692 95.13778194 30.61499023 92.72509766 C26.03663416 89.03902638 20.81653878 89.59605617 15.1875 89.6484375 C14.05602539 89.64365387 12.92455078 89.63887024 11.75878906 89.63394165 C9.37173061 89.63054627 6.98462543 89.63972315 4.59765625 89.66064453 C0.9494634 89.68741222 -2.69565255 89.66088121 -6.34375 89.62890625 C-8.66667344 89.63221041 -10.98959497 89.63861676 -13.3125 89.6484375 C-14.40014648 89.63831635 -15.48779297 89.62819519 -16.60839844 89.61776733 C-23.20680513 89.71959861 -26.58130088 90.32915433 -31.0625 95.3125 Z M-73.0625 151.3125 C-73.5467041 151.74900879 -74.0309082 152.18551758 -74.52978516 152.63525391 C-95.36107729 171.59407034 -107.94906763 198.27827439 -110.0625 226.3125 C-110.22393837 231.8392609 -110.00426358 237.36459328 -109.82013512 242.88854599 C-107.32507077 323.20514125 -107.32507077 323.20514125 -128.99983215 358.09451294 C-131.81543217 362.79464404 -132.45789881 365.95183935 -131.67611694 371.39733887 C-130.68781002 374.48194568 -128.77761782 375.72316274 -126.0625 377.3125 C-123.76664416 378.46042792 -122.4816627 378.44067691 -119.92882156 378.44672108 C-119.05769077 378.45117892 -118.18655997 378.45563676 -117.28903127 378.46022969 C-116.32621259 378.46004533 -115.36339392 378.45986097 -114.37139893 378.45967102 C-113.35303538 378.46334771 -112.33467184 378.4670244 -111.28544879 378.4708125 C-107.85077596 378.48188303 -104.41613334 378.48569887 -100.98144531 378.48950195 C-98.52786156 378.49576403 -96.07427877 378.5024106 -93.62069702 378.50941467 C-86.24138715 378.52866714 -78.86208531 378.53924659 -71.48275769 378.54814246 C-68.00879586 378.55252414 -64.53483556 378.55789128 -61.06087494 378.56313133 C-49.51433758 378.58014482 -37.96780118 378.5946392 -26.4212532 378.60188007 C-23.42406462 378.60379001 -20.42687605 378.60571034 -17.4296875 378.60766602 C-16.31226426 378.60839163 -16.31226426 378.60839163 -15.17226681 378.6091319 C-3.103395 378.61743296 8.96537771 378.6427706 21.03420624 378.67524669 C33.42149647 378.7083083 45.80873632 378.72632803 58.19607091 378.72952431 C65.15253291 378.7316903 72.10885044 378.74045172 79.06526947 378.76598549 C85.60859369 378.78994728 92.15170443 378.7935238 98.6950798 378.78322411 C101.09850554 378.78272716 103.50194383 378.78909392 105.90533066 378.80278015 C109.1833566 378.82040455 112.46043868 378.8134388 115.73846436 378.80024719 C116.69236014 378.81121644 117.64625593 378.82218568 118.62905765 378.83348733 C124.37356787 378.77757177 127.52621012 378.07196969 131.9375 374.3125 C134.31004604 371.07720994 134.20024824 368.24507471 133.9375 364.3125 C132.80240741 361.45847028 132.80240741 361.45847028 131.12109375 358.6796875 C130.52103516 357.62523437 129.92097656 356.57078125 129.30273438 355.484375 C128.66658203 354.39640625 128.03042969 353.3084375 127.375 352.1875 C126.76591797 351.12273437 126.15683594 350.05796875 125.52929688 348.9609375 C124.36412454 346.92897559 123.19411097 344.89977509 122.01733398 342.87451172 C121.715784 342.33054245 121.41423401 341.78657318 121.10354614 341.22612 C119.91616631 339.19752019 119.91616631 339.19752019 118.1725769 337.03327942 C111.0454308 326.96943636 112.0043664 316.60218988 112.140625 304.71484375 C112.13885348 302.51306111 112.13355996 300.3112788 112.12493896 298.10951233 C112.10974155 292.33142735 112.13341472 286.55422163 112.16815186 280.77624512 C112.21873722 271.55694232 112.21681128 262.33768453 112.20174408 253.11828804 C112.20308672 249.93072199 112.22526577 246.74383706 112.25030518 243.55638123 C112.38231548 209.05946214 102.81167123 180.67062337 78.9375 155.3125 C78.38707031 154.69761719 77.83664062 154.08273438 77.26953125 153.44921875 C59.88592767 134.77794083 31.63605719 124.25260671 6.66796875 122.9921875 C-22.61381132 122.09516973 -51.29782631 131.34815382 -73.0625 151.3125 Z M-49.0625 390.3125 C-40.71172621 407.01404758 -29.97912135 415.44890569 -12.67578125 421.49609375 C1.46872821 424.69198832 16.12730581 422.77314677 28.765625 415.73828125 C38.28721316 409.4733099 45.78673631 401.49283295 50.9375 391.3125 C50.9375 390.9825 50.9375 390.6525 50.9375 390.3125 C17.9375 390.3125 -15.0625 390.3125 -49.0625 390.3125 Z " fill="#E8C017" transform="translate(255.0625,-0.31250000000000006)"/>
</svg>
