<?xml version="1.0" encoding="UTF-8"?>
<svg version="1.1" xmlns="http://www.w3.org/2000/svg" width="512" height="512">
<path d="M0 0 C1.01790619 0.00215515 2.03581238 0.0043103 3.08456421 0.00653076 C17.69363523 0.05620146 32.02575853 0.30709809 46.375 3.3125 C47.34985352 3.51117676 48.32470703 3.70985352 49.32910156 3.91455078 C97.7109774 14.03517194 141.69928269 35.9516877 177.375 70.3125 C178.3640332 71.26068604 178.3640332 71.26068604 179.37304688 72.22802734 C188.86130305 81.37247479 197.6012044 90.66984009 205.375 101.3125 C206.23306152 102.46355017 207.09113451 103.61459177 207.94921875 104.765625 C213.98736829 112.95680614 219.34595521 121.47054105 224.375 130.3125 C224.73948242 130.94430176 225.10396484 131.57610352 225.47949219 132.22705078 C247.08534998 169.97532572 256.85198095 212.74189997 256.6875 255.9375 C256.68534485 256.95540619 256.6831897 257.97331238 256.68096924 259.02206421 C256.63129854 273.63113523 256.38040191 287.96325853 253.375 302.3125 C253.07698486 303.77478027 253.07698486 303.77478027 252.77294922 305.26660156 C242.65232806 353.6484774 220.7358123 397.63678269 186.375 433.3125 C185.74287598 433.97185547 185.11075195 434.63121094 184.45947266 435.31054688 C175.31502521 444.79880305 166.01765991 453.5387044 155.375 461.3125 C154.22394983 462.17056152 153.07290823 463.02863451 151.921875 463.88671875 C143.73224019 469.92427396 135.22961724 475.30707302 126.375 480.3125 C125.66778809 480.7146875 124.96057617 481.116875 124.23193359 481.53125 C101.09654164 494.5566741 75.92537591 503.30551461 49.9375 508.625 C49.21860596 508.77235596 48.49971191 508.91971191 47.7590332 509.0715332 C33.08339502 511.86090125 18.55831162 512.66142619 3.64770508 512.62817383 C0.70811513 512.6250221 -2.2304558 512.64854926 -5.16992188 512.67382812 C-18.54306192 512.71848737 -31.43916711 511.51301542 -44.625 509.3125 C-46.33055054 509.03031616 -46.33055054 509.03031616 -48.07055664 508.74243164 C-91.33802759 500.97044532 -132.38793216 480.98345309 -165.625 452.3125 C-166.37007813 451.67828125 -167.11515625 451.0440625 -167.8828125 450.390625 C-181.38779833 438.57948485 -194.05918743 425.82889772 -204.625 411.3125 C-205.48149066 410.16255169 -206.33826433 409.01281411 -207.1953125 407.86328125 C-213.23534209 399.67315742 -218.61867614 391.16870382 -223.625 382.3125 C-224.0271875 381.60528809 -224.429375 380.89807617 -224.84375 380.16943359 C-237.8691741 357.03404164 -246.61801461 331.86287591 -251.9375 305.875 C-252.08485596 305.15610596 -252.23221191 304.43721191 -252.3840332 303.6965332 C-255.35789088 288.05024391 -255.99800362 272.57681954 -255.9375 256.6875 C-255.93534485 255.66959381 -255.9331897 254.65168762 -255.93096924 253.60293579 C-255.88129854 238.99386477 -255.63040191 224.66174147 -252.625 210.3125 C-252.42632324 209.33764648 -252.22764648 208.36279297 -252.02294922 207.35839844 C-241.90232806 158.9765226 -219.9858123 114.98821731 -185.625 79.3125 C-184.99287598 78.65314453 -184.36075195 77.99378906 -183.70947266 77.31445312 C-174.56502521 67.82619695 -165.26765991 59.0862956 -154.625 51.3125 C-153.47394983 50.45443848 -152.32290823 49.59636549 -151.171875 48.73828125 C-142.98224019 42.70072604 -134.47961724 37.31792698 -125.625 32.3125 C-124.91778809 31.9103125 -124.21057617 31.508125 -123.48193359 31.09375 C-100.34654164 18.0683259 -75.17537591 9.31948539 -49.1875 4 C-48.46860596 3.85264404 -47.74971191 3.70528809 -47.0090332 3.5534668 C-31.36274391 0.57960912 -15.88931954 -0.06050362 0 0 Z " fill="#78909C" transform="translate(255.625,-0.3125)"/>
<path d="M0 0 C0.33 0 0.66 0 1 0 C0.31932655 7.7364348 -1.23227257 15.16645692 -2.875 22.75 C-6.52174156 40.18918459 -9.24931501 56.82853338 -9.375 74.6875 C-9.38901855 75.95327881 -9.40303711 77.21905762 -9.41748047 78.52319336 C-9.3791918 85.91437986 -8.47852462 92.05702677 -6 99 C-5.65119572 100.32936995 -5.31278144 101.66169635 -5 103 C-0.39738283 101.73261266 2.40709089 100.13824562 5.875 96.875 C6.73609375 96.070625 7.5971875 95.26625 8.484375 94.4375 C11.38445753 91.62748215 14.23783605 88.77641558 17.0703125 85.8984375 C19.60979396 83.40008124 22.29925133 81.10220589 25 78.78125 C27.08337078 76.9257479 29.04281207 74.98776899 31 73 C33.55990134 70.40017817 36.1677954 67.93731602 38.9375 65.5625 C42.66616873 62.35920142 46.10939297 58.93339494 49.53125 55.40625 C51.55720105 53.43158885 53.61473841 51.58861156 55.7578125 49.74609375 C60.96753151 45.22800566 65.72672004 40.29008417 70.52734375 35.34570312 C71.20667969 34.65541016 71.88601563 33.96511719 72.5859375 33.25390625 C73.1948584 32.62814697 73.8037793 32.0023877 74.43115234 31.35766602 C76 30 76 30 78 30 C77.47483112 36.63441191 76.18545118 42.37202182 73.9375 48.625 C73.62659424 49.49527832 73.31568848 50.36555664 72.99536133 51.26220703 C66.19537361 69.72197931 55.07789798 84.70665567 42.31396484 99.46826172 C39.50926062 102.73781101 36.79221247 106.07859611 34.0859375 109.4296875 C32.69711072 111.14101339 31.28545659 112.83406704 29.8515625 114.5078125 C29.19929687 115.28898437 28.54703125 116.07015625 27.875 116.875 C27.29492188 117.55304688 26.71484375 118.23109375 26.1171875 118.9296875 C24.73502004 121.01775198 24.73502004 121.01775198 25.3203125 123.7578125 C25.65675781 124.86769531 25.65675781 124.86769531 26 126 C27.64313661 126.48833406 29.28971466 126.96508966 30.9375 127.4375 C31.85402344 127.70433594 32.77054688 127.97117187 33.71484375 128.24609375 C42.31516311 130.21976989 50.96065639 130.18278469 59.75 130.1875 C60.9359375 130.19974609 62.121875 130.21199219 63.34375 130.22460938 C75.15974682 130.24395871 86.26521294 128.49095722 97.625 125.3125 C98.55723389 125.05412354 99.48946777 124.79574707 100.44995117 124.52954102 C113.22252968 120.90171757 125.50018881 116.69079924 137 110 C137.66 110.33 138.32 110.66 139 111 C124.17162307 135.65038865 103.81565118 150.64253792 76.0390625 158.0859375 C54.62806872 163.14086385 31.79261188 163.5479535 10 161 C1.51933454 159.94790706 1.51933454 159.94790706 -6.40234375 162.3984375 C-7.86196725 163.73030997 -9.27106627 165.11880696 -10.63671875 166.546875 C-13.32684017 169.3392655 -16.25105992 171.69987632 -19.3125 174.0625 C-19.90981934 174.5260791 -20.50713867 174.9896582 -21.12255859 175.46728516 C-22.40732488 176.46182509 -23.69385215 177.4540934 -24.98193359 178.44433594 C-26.32738925 179.48150548 -27.66887978 180.52383917 -29.00634766 181.57128906 C-51.14942235 198.89612238 -74.92025437 214.28975565 -98.9375 228.875 C-99.81704346 229.41033356 -99.81704346 229.41033356 -100.71435547 229.95648193 C-105.75533549 233.01475045 -110.51215445 235.80486178 -116 238 C-116 212.59 -116 187.18 -116 161 C-110.06 160.67 -104.12 160.34 -98 160 C-78.9472058 156.99166407 -60.45867105 151.97751993 -45 140 C-44.071875 139.34 -43.14375 138.68 -42.1875 138 C-39.23752645 135.30288133 -36.73578021 132.63428981 -35 129 C-35.03665164 125.72188381 -35.03665164 125.72188381 -36 122 C-36.98248412 112.99483589 -37.18252428 103.98832601 -37.1875 94.9375 C-37.19974609 93.76123047 -37.21199219 92.58496094 -37.22460938 91.37304688 C-37.24299674 80.28546684 -35.60274743 69.96676115 -32.375 59.375 C-31.9869519 58.10039917 -31.9869519 58.10039917 -31.59106445 56.80004883 C-25.41841291 37.21001167 -15.597002 20.11303267 -3 4 C-2.44054687 3.23042969 -1.88109375 2.46085938 -1.3046875 1.66796875 C-0.87414062 1.11753906 -0.44359375 0.56710938 0 0 Z " fill="#FDFEFD" transform="translate(235,161)"/>
<path d="M0 0 C1.76053711 -0.01160156 1.76053711 -0.01160156 3.55664062 -0.0234375 C5.23209961 -0.01957031 5.23209961 -0.01957031 6.94140625 -0.015625 C7.95017822 -0.01336914 8.9589502 -0.01111328 9.99829102 -0.00878906 C12.4375 0.25 12.4375 0.25 14.4375 2.25 C13.64954188 20.05785356 7.91009907 40.86977567 -4.3203125 54.16015625 C-11.36415707 60.58805925 -17.70622225 61.84135937 -27.11328125 61.69140625 C-31.39013128 61.14408569 -34.14925686 59.76581528 -37.59765625 57.24609375 C-40.34639214 55.85259941 -41.63787764 56.36193949 -44.5625 57.25 C-46.82083663 58.08187521 -49.07030715 58.93804479 -51.3125 59.8125 C-57.09526769 61.93081911 -61.45245344 62.77672815 -67.5625 62.25 C-67.0675 59.28 -67.0675 59.28 -66.5625 56.25 C-65.7890625 56.07984375 -65.015625 55.9096875 -64.21875 55.734375 C-57.79703664 54.24021397 -52.32228843 52.4621897 -46.5625 49.25 C-47.18125 48.198125 -47.8 47.14625 -48.4375 46.0625 C-52.50678038 39.14472335 -53.49003235 33.23874634 -52.5625 25.25 C-50.20466351 16.90780693 -44.82522076 11.68668248 -37.5625 7.25 C-25.38223363 1.31834612 -13.3982054 -0.09098951 0 0 Z " fill="#FDFDFD" transform="translate(308.5625,109.75)"/>
<path d="M0 0 C1.10722412 0.00161133 2.21444824 0.00322266 3.35522461 0.00488281 C17.67237238 0.21737449 32.53933371 2.85183371 43.0625 13.375 C47.58456472 20.30475864 49.80204989 26.07971536 49.0625 34.375 C48.2378944 38.10010788 47.20525494 41.73586968 46.0625 45.375 C48.89519666 46.79134833 51.53716438 46.7213005 54.6875 46.9375 C55.87601562 47.02128906 57.06453125 47.10507813 58.2890625 47.19140625 C59.66191406 47.28228516 59.66191406 47.28228516 61.0625 47.375 C60.7325 49.685 60.4025 51.995 60.0625 54.375 C53.88609188 54.5728209 48.93135344 54.47101909 43.0625 52.375 C38.57443567 52.59392997 36.44269596 54.57191067 33.0625 57.375 C26.27105408 61.39883357 19.75997405 61.22846861 12.0625 60.375 C8.54754834 59.24357779 5.9388461 57.66901836 3.0625 55.375 C2.46308594 54.91351563 1.86367187 54.45203125 1.24609375 53.9765625 C-8.69929563 45.21038036 -13.40449078 31.74719834 -16.9375 19.375 C-17.26878906 18.240625 -17.60007812 17.10625 -17.94140625 15.9375 C-20.26805839 7.42383117 -20.26805839 7.42383117 -18.9375 2.375 C-12.62474973 0.13643607 -6.66186453 -0.01002764 0 0 Z " fill="#FDFDFC" transform="translate(132.9375,182.625)"/>
<path d="M0 0 C6.17436411 1.37208091 11.62213581 6.83385477 15 12 C15.70769531 11.84273438 16.41539062 11.68546875 17.14453125 11.5234375 C25.28465988 10.03126618 32.45601609 10.23602041 39.7421875 14.3828125 C46.44758357 19.18563945 50.61315731 25.28659878 52.5546875 33.28515625 C54.95191286 47.8998196 52.00008653 63.2297579 47.0625 77 C46.82192871 77.68892334 46.58135742 78.37784668 46.33349609 79.08764648 C45.59765625 81 45.59765625 81 44 84 C41.72840192 84.95729088 40.52086256 85.16578868 38.15991211 84.41430664 C37.53866455 84.08293701 36.91741699 83.75156738 36.27734375 83.41015625 C35.57939697 83.04220947 34.8814502 82.6742627 34.16235352 82.29516602 C33.42815186 81.88838623 32.6939502 81.48160645 31.9375 81.0625 C31.17816162 80.64863037 30.41882324 80.23476074 29.63647461 79.80834961 C15.59077633 72.0111462 2.34930338 62.25238561 -4 47 C-6.13068698 38.13101545 -5.0020773 32.73671362 -0.7265625 24.72265625 C1.50192543 21.20850221 3.50226241 19.22583301 7 17 C7.66 17 8.32 17 9 17 C5.04174791 12.17514834 1.40839975 8.16589254 -4 5 C-3 2 -3 2 0 0 Z " fill="#FDFDFC" transform="translate(346,310)"/>
<path d="M0 0 C10.52105695 7.62709013 21.49572338 17.46400994 27.8515625 29.015625 C27.83984375 31.69140625 27.83984375 31.69140625 26.8515625 34.015625 C19.81203349 40.50111701 8.68340518 43.63004769 -0.1484375 47.015625 C-1.05722656 47.38171875 -1.96601563 47.7478125 -2.90234375 48.125 C-11.93407658 51.36480941 -24.30838298 51.74368087 -33.26171875 48.04296875 C-39.43409953 44.68202435 -43.29890346 40.33497225 -46.28125 33.9609375 C-47.91790206 28.40221833 -47.52001045 22.74610564 -47.1484375 17.015625 C-48.02757812 16.77714844 -48.90671875 16.53867187 -49.8125 16.29296875 C-53.48420155 14.88705961 -55.63348848 13.22073604 -58.5234375 10.578125 C-59.39742187 9.79566406 -60.27140625 9.01320313 -61.171875 8.20703125 C-63.1484375 6.015625 -63.1484375 6.015625 -63.1484375 3.015625 C-61.4984375 2.355625 -59.8484375 1.695625 -58.1484375 1.015625 C-57.62894531 1.48613281 -57.10945312 1.95664062 -56.57421875 2.44140625 C-52.93549473 5.69002677 -49.48424037 8.71222972 -45.1484375 11.015625 C-44.9009375 10.314375 -44.6534375 9.613125 -44.3984375 8.890625 C-41.63403368 2.53249622 -38.15060452 -1.62163872 -32.1484375 -4.984375 C-20.61621217 -9.46912929 -10.22436025 -6.44413773 0 0 Z " fill="#FDFDFD" transform="translate(262.1484375,351.984375)"/>
<path d="M0 0 C1.25985718 0.02018188 1.25985718 0.02018188 2.54516602 0.04077148 C13.68561096 0.30773047 34.37484919 1.93734919 42.75 10.3125 C41.82057318 23.88213153 30.38688381 37.39838248 20.75 46.3125 C20.16734375 46.87710938 19.5846875 47.44171875 18.984375 48.0234375 C11.00946071 55.46459768 4.13681793 58.12149231 -6.87890625 57.75390625 C-14.9359468 56.69892875 -19.76211231 52.33941083 -24.83984375 46.27734375 C-26.25 44.3125 -26.25 44.3125 -26.9921875 42.10546875 C-27.40726562 41.51378906 -27.82234375 40.92210937 -28.25 40.3125 C-31.58540546 39.67671429 -31.58540546 39.67671429 -35.4375 39.6875 C-40.80915089 39.54825481 -45.18189413 38.95585469 -50.25 37.3125 C-49.26 35.3325 -48.27 33.3525 -47.25 31.3125 C-41.64 31.9725 -36.03 32.6325 -30.25 33.3125 C-30.37375 30.095 -30.37375 30.095 -30.5 26.8125 C-30.46116517 19.09213641 -29.48369388 14.81302127 -24.26171875 9.16015625 C-16.84935684 2.08064651 -10.14587389 -0.22990853 0 0 Z " fill="#FDFEFD" transform="translate(355.25,195.6875)"/>
</svg>
