<?xml version="1.0" encoding="UTF-8"?>
<svg version="1.1" xmlns="http://www.w3.org/2000/svg" width="512" height="512">
<path d="M0 0 C1.75373932 0.00323273 1.75373932 0.00323273 3.54290771 0.00653076 C69.24458603 0.19959703 143.30107091 8.80483429 193.5625 55.3125 C194.33134521 56.0235791 194.33134521 56.0235791 195.11572266 56.74902344 C231.06363142 90.43542057 245.38652612 138.37912206 252.3125 185.8125 C252.46434753 186.83621704 252.46434753 186.83621704 252.6192627 187.88061523 C255.91068232 210.40028279 256.95134516 233.01179902 256.875 255.75 C256.87284485 256.91915955 256.8706897 258.08831909 256.86846924 259.29290771 C256.68721609 320.97450706 249.73686582 393.77063189 207.5625 442.3125 C206.84320313 443.14136719 206.12390625 443.97023438 205.3828125 444.82421875 C203.14342131 447.35418838 200.86682268 449.84159978 198.5625 452.3125 C197.86511719 453.06402344 197.16773438 453.81554687 196.44921875 454.58984375 C186.79968062 464.6274803 175.58415013 472.38071811 163.5625 479.3125 C162.47066406 479.95832031 161.37882812 480.60414063 160.25390625 481.26953125 C85.69928595 524.08527531 -26.29276361 520.73397104 -113.8984375 499.1953125 C-139.76290373 491.9368449 -164.99746816 481.07130109 -185.4375 463.3125 C-186.26636719 462.59320313 -187.09523438 461.87390625 -187.94921875 461.1328125 C-190.47918838 458.89342131 -192.96659978 456.61682268 -195.4375 454.3125 C-196.56478516 453.26642578 -196.56478516 453.26642578 -197.71484375 452.19921875 C-207.7524803 442.54968062 -215.50571811 431.33415013 -222.4375 419.3125 C-223.08332031 418.22066406 -223.72914063 417.12882812 -224.39453125 416.00390625 C-265.20381114 344.94312163 -262.36090812 242.38189353 -243 144.25 C-235.51585568 117.53178996 -224.81422293 91.46374776 -206.4375 70.3125 C-205.71820313 69.48363281 -204.99890625 68.65476562 -204.2578125 67.80078125 C-202.01842131 65.27081162 -199.74182268 62.78340022 -197.4375 60.3125 C-196.74011719 59.56097656 -196.04273438 58.80945312 -195.32421875 58.03515625 C-162.81677801 24.22028645 -114.88536349 11.12555206 -69.9375 4.5625 C-69.25502197 4.46126831 -68.57254395 4.36003662 -67.86938477 4.2557373 C-45.34971721 0.96431768 -22.73820098 -0.07634516 0 0 Z " fill="#616484" transform="translate(255.4375,-0.3125)"/>
<path d="M0 0 C31.74120308 0 31.74120308 0 43.9375 1.125 C45.00531204 1.22053162 45.00531204 1.22053162 46.09469604 1.31799316 C98.66391664 6.08936553 153.18995827 18.16316217 193 55 C193.51256348 55.47405273 194.02512695 55.94810547 194.55322266 56.43652344 C230.50113142 90.12292057 244.82402612 138.06662206 251.75 185.5 C251.90184753 186.52371704 251.90184753 186.52371704 252.0567627 187.56811523 C255.34818232 210.08778279 256.38884516 232.69929902 256.3125 255.4375 C256.31034485 256.60665955 256.3081897 257.77581909 256.30596924 258.98040771 C256.12471609 320.66200706 249.17436582 393.45813189 207 442 C206.28070313 442.82886719 205.56140625 443.65773438 204.8203125 444.51171875 C202.58092131 447.04168838 200.30432268 449.52909978 198 452 C197.30261719 452.75152344 196.60523438 453.50304687 195.88671875 454.27734375 C186.23718062 464.3149803 175.02165013 472.06821811 163 479 C161.36224609 479.96873047 161.36224609 479.96873047 159.69140625 480.95703125 C125.10204398 500.82124994 83.16553662 507.36547062 43.9375 510.875 C42.63433838 510.99520508 41.33117676 511.11541016 39.98852539 511.23925781 C26.58194301 512.30682665 13.57649283 512 0 512 C0 481.31 0 450.62 0 419 C5.28 418.01 10.56 417.02 16 416 C30.2248023 409.90365616 38.92864954 402.00704465 44.875 387.5 C46.40881524 383.55880586 47.1731902 379.96946712 47.55908203 375.78320312 C47.68550583 374.4379657 47.68550583 374.4379657 47.81448364 373.06555176 C47.90631424 372.04310364 47.90631424 372.04310364 48 371 C48.92992767 370.99635437 49.85985535 370.99270874 50.81796265 370.98895264 C59.61531265 370.95096272 68.41229607 370.89398566 77.20938683 370.81609726 C81.73123931 370.77671981 86.25289989 370.7444839 90.77490234 370.72900391 C95.14532125 370.71377281 99.51521224 370.67921416 103.88539505 370.63169098 C105.54615291 370.61694334 107.20698617 370.60896281 108.8678093 370.60811615 C119.31194079 370.5974448 127.82915198 369.89031723 136.875 364.1875 C142.93497565 357.94928978 144.37135202 351.267377 144.28125 342.8203125 C143.45917624 334.57673955 138.22285097 330.0446288 132.45703125 324.59765625 C115.6857436 308.52001122 107.01183277 290.52407809 102 268 C101.82840866 267.29140335 101.65681732 266.5828067 101.48002625 265.85273743 C100.88534222 262.31860279 100.85549871 258.85439231 100.8581543 255.2824707 C100.85467987 254.52061462 100.85120544 253.75875854 100.84762573 252.97381592 C100.84029088 251.32276953 100.83493344 249.67171343 100.83133507 248.02065468 C100.8241202 245.38984535 100.80841097 242.75921728 100.78999329 240.12846375 C100.73779985 232.649065 100.68970833 225.16976196 100.67407227 217.69018555 C100.66386537 213.10652586 100.63421754 208.52331919 100.59275246 203.93984032 C100.58060633 202.21032359 100.57529048 200.48074236 100.57755089 198.75118446 C100.60468159 171.1840885 92.371492 144.69028886 72.73828125 124.70703125 C71.83464844 123.81371094 70.93101562 122.92039062 70 122 C69.20980469 121.19949219 68.41960937 120.39898437 67.60546875 119.57421875 C49.1167659 101.82138467 24.92414185 95.07701182 0 93 C0 62.31 0 31.62 0 0 Z " fill="#424566" transform="translate(256,0)"/>
<path d="M0 0 C26.72198814 -1.35236199 52.05343729 6.79108229 72.20458984 24.61474609 C73.79416159 26.10813356 75.37789533 27.60776937 76.95458984 29.11474609 C77.96779297 30.01580078 77.96779297 30.01580078 79.00146484 30.93505859 C94.95566755 45.67674189 103.96835283 67.93549952 106.95458984 89.11474609 C107.04332602 91.71849631 107.08834274 94.29524636 107.08056641 96.89819336 C107.08336861 98.0339682 107.08336861 98.0339682 107.08622742 99.19268799 C107.09021655 100.83116378 107.09230488 102.46964508 107.09268951 104.10812569 C107.09614166 107.62547092 107.11756609 111.14263736 107.13792038 114.65991879 C107.17565751 121.19102639 107.20722967 127.72194441 107.20507812 134.25317383 C107.2072498 170.66783305 110.47321676 200.65021645 136.24365234 228.42333984 C138.17079741 230.33660058 140.01461802 232.01544763 142.11474609 233.70458984 C144.61269497 235.82458222 146.13334889 237.45309764 147.76708984 240.23974609 C148.16541016 240.90232422 148.56373047 241.56490234 148.97412109 242.24755859 C151.88029399 247.78202331 151.76334651 254.38300275 150.45849609 260.40380859 C147.78682636 268.22259347 143.25132795 272.32498513 136.13818359 276.13427734 C131.62382495 278.16129706 127.4185399 278.25354524 122.52392578 278.22827148 C121.78207031 278.22841751 121.04021484 278.22856354 120.27587891 278.22871399 C117.83021087 278.22801878 115.38461953 278.22024476 112.93896484 278.21240234 C111.24074342 278.21053677 109.54252147 278.20911352 107.84429932 278.20811462 C103.37925729 278.20430042 98.9142479 278.19447948 94.44921875 278.18341064 C89.89111777 278.17317296 85.33301151 278.16861195 80.77490234 278.16357422 C71.83478385 278.15285623 62.89468957 278.13579296 53.95458984 278.11474609 C53.96401611 278.79678604 53.97344238 279.47882599 53.9831543 280.18153381 C53.99048584 281.07867599 53.99781738 281.97581818 54.00537109 282.90014648 C54.0195105 284.23258141 54.0195105 284.23258141 54.03393555 285.5919342 C53.69675562 296.31263492 46.31258684 307.00820744 38.79052734 314.17724609 C27.11950468 323.74501025 14.79275359 327.15069977 -0.07958984 326.31005859 C-13.33545006 324.99303324 -24.57712062 316.91040641 -33.04541016 307.11474609 C-38.73322779 299.93242536 -42.17272559 291.07676778 -42.08911133 281.90722656 C-42.07964729 280.55998001 -42.07964729 280.55998001 -42.06999207 279.18551636 C-42.06188004 278.50216217 -42.05376801 277.81880798 -42.04541016 277.11474609 C-43.00483521 277.12140793 -43.96426025 277.12806976 -44.95275879 277.13493347 C-54.01537494 277.19587373 -63.07794926 277.24078059 -72.14072418 277.27018261 C-76.79946972 277.28580689 -81.45804922 277.30698576 -86.11669922 277.34106445 C-90.61654787 277.37377373 -95.11623727 277.39162344 -99.61619568 277.39937782 C-101.32891851 277.40490062 -103.04163309 277.41568519 -104.75428772 277.43193626 C-107.16206374 277.45386477 -109.56919022 277.45670666 -111.97705078 277.45532227 C-113.02794388 277.47150101 -113.02794388 277.47150101 -114.10006714 277.48800659 C-120.060471 277.45117066 -125.28173352 276.03341369 -130.21728516 272.60693359 C-135.98141498 266.70012729 -139.1869993 260.91131212 -139.54541016 252.55224609 C-139.15437321 242.91116282 -134.25707076 238.0935038 -127.50244141 231.71240234 C-108.99831861 213.97359039 -96.40531266 190.13681363 -95.80272293 164.07212925 C-95.76272977 160.98477341 -95.74408233 157.8978911 -95.74044991 154.81028175 C-95.73673129 152.2634822 -95.71985628 149.71705348 -95.69969177 147.17033386 C-95.64481199 139.93695035 -95.6137505 132.70351392 -95.58911133 125.4699707 C-95.57306036 121.02212457 -95.54266492 116.57454374 -95.50434685 112.12683678 C-95.49285213 110.45148259 -95.48676789 108.77608064 -95.48666573 107.10068703 C-95.48420191 77.44526065 -86.18068647 50.03578236 -65.04541016 28.67724609 C-60.11502676 23.8457844 -54.88867104 19.779806 -49.04541016 16.11474609 C-48.28099609 15.60556641 -47.51658203 15.09638672 -46.72900391 14.57177734 C-32.67263499 5.56365954 -16.56506114 0.92928846 0 0 Z " fill="#C9D3FE" transform="translate(250.04541015625,92.88525390625)"/>
<path d="M0 0 C0 91.08 0 182.16 0 276 C-129.67875648 276 -129.67875648 276 -136.171875 271.4921875 C-141.93600482 265.5853812 -145.14158915 259.79656602 -145.5 251.4375 C-145.10896306 241.79641673 -140.2116606 236.97875771 -133.45703125 230.59765625 C-114.95290846 212.8588443 -102.3599025 189.02206754 -101.75731277 162.95738316 C-101.71731961 159.87002731 -101.69867217 156.783145 -101.69503975 153.69553566 C-101.69132113 151.14873611 -101.67444612 148.60230738 -101.65428162 146.05558777 C-101.59940184 138.82220426 -101.56834035 131.58876782 -101.54370117 124.35522461 C-101.5276502 119.90737847 -101.49725476 115.45979765 -101.45893669 111.01209068 C-101.44744197 109.3367365 -101.44135773 107.66133455 -101.44125557 105.98594093 C-101.43879176 76.33051456 -92.13527631 48.92103627 -71 27.5625 C-66.0696166 22.73103831 -60.84326089 18.66505991 -55 15 C-54.23558594 14.49082031 -53.47117187 13.98164062 -52.68359375 13.45703125 C-36.01558924 2.77522935 -19.80677514 0 0 0 Z " fill="#EFF1FE" transform="translate(256,94)"/>
<path d="M0 0 C15.84 0 31.68 0 48 0 C48 13.81053315 44.18767922 23.65142268 35 34 C22.26622799 46.13615816 8.78193897 48.36659575 -8 48 C-8 47.67 -8 47.34 -8 47 C-5.36 47 -2.72 47 0 47 C0 31.49 0 15.98 0 0 Z " fill="#AFC2FD" transform="translate(256,371)"/>
</svg>
