<?xml version="1.0" encoding="UTF-8"?>
<svg width="645.6" height="354.18" clip-rule="evenodd" fill-rule="evenodd" stroke-linejoin="round" stroke-miterlimit="2" version="1.1" viewBox="0 0 645.6 354.18" xml:space="preserve" xmlns="http://www.w3.org/2000/svg">
<title>Cycling '74 logo</title>
<desc>A music technology company based in San Francisco, California. Subsidiary of Ableton</desc>
    <g id="Light" transform="scale(4.4833)">
        <path d="m80 31h-28v48h1e-3c7.425 0 14.547-2.999 19.798-8.337s8.201-12.577 8.201-20.126zm64-31h-1e-3c-7.425 0-14.547 2.957-19.798 8.221-5.251 5.265-8.201 12.405-8.201 19.849v50.93h1e-3c7.425 0 14.547-2.957 19.798-8.221 5.251-5.265 8.201-12.404 8.201-19.849zm-115.93 28.074c0-7.444-2.957-14.583-8.221-19.847-5.263-5.264-12.403-8.221-19.846-8.221h-1e-3v19.265c0 7.444 2.957 14.583 8.221 19.847 5.263 5.264 12.403 8.22 19.846 8.22h1e-3zm84.932-0.203c0-7.392-2.95-14.481-8.201-19.708s-12.372-8.163-19.798-8.163h-1e-3v47h28zm-32.964 0.197c0-7.444-2.957-14.583-8.22-19.847-5.264-5.264-12.403-8.221-19.847-8.221h-27.969v1e-3c0 7.444 2.957 14.583 8.22 19.847 5.264 5.263 12.403 8.22 19.848 8.22z" fill="#00e3e1"/>
    </g>
</svg>