<?xml version="1.0" encoding="UTF-8"?>
<svg version="1.1" xmlns="http://www.w3.org/2000/svg" width="512" height="512">
<path d="M0 0 C1.30048109 -0.13697356 1.30048109 -0.13697356 2.62723452 -0.27671427 C5.53120669 -0.57706296 8.43628683 -0.86365854 11.3419342 -1.14732361 C12.36245251 -1.24864782 13.38297081 -1.34997204 14.43441391 -1.45436668 C35.03515872 -3.47659477 55.66300847 -4.6958358 76.3384161 -5.64930058 C89.44176596 -6.26994771 102.44886255 -7.11320016 115.4879303 -8.5955658 C175.4164274 -15.24838465 221.66989779 -7.41178604 269.00448418 30.22916317 C317.16155636 69.21103499 355.29585902 114.82450949 361.97895372 177.98880732 C365.82580106 217.69533344 363.4400289 257.82332133 360.66115588 297.51656371 C359.65526963 312.05799947 359.00006083 326.58728527 358.56556702 341.15663147 C358.53446275 342.19648236 358.50335848 343.23633325 358.47131165 344.30769478 C358.31667119 349.53124222 358.1671269 354.75492222 358.01949346 359.97867179 C357.11988797 391.5053965 355.86324727 423.00549645 353.90818465 454.48516798 C353.75864497 456.9228378 353.61527793 459.36079997 353.47351074 461.79893303 C353.25314671 465.56305523 353.01437316 469.32554838 352.76007096 473.08752669 C352.6283298 475.08335081 352.51180085 477.08016133 352.39590234 479.07696807 C351.69006571 488.8696399 349.19882036 497.79981577 342.28749084 505.09510803 C335.86353981 510.25806127 329.69788488 513.34074094 321.32690716 513.35237694 C320.15009024 513.35882583 318.97327333 513.36527472 317.7607953 513.37191904 C316.47705279 513.36882183 315.19331029 513.36572463 313.8706665 513.36253357 C312.48596697 513.36627169 311.10126954 513.37087386 309.71657544 513.37626421 C305.91655399 513.38848965 302.11662062 513.38823429 298.31658399 513.38587546 C294.21626072 513.38546718 290.11596564 513.39650751 286.01565552 513.4059906 C277.98427611 513.42259897 269.95292607 513.42810007 261.92153092 513.42921536 C255.3928563 513.43016589 248.86419135 513.43427645 242.33551979 513.44061661 C223.82314519 513.45822842 205.31079377 513.46745555 186.79841074 513.46595566 C185.80053715 513.46587575 184.80266357 513.46579583 183.77455139 513.4657135 C182.77545863 513.46563174 181.77636587 513.46554998 180.74699757 513.46546574 C164.55477036 513.46465281 148.36263617 513.48379233 132.17043587 513.51199023 C115.54206335 513.5407191 98.91373619 513.55453053 82.28533822 513.55280268 C72.95068548 513.55213879 63.61613025 513.55763073 54.28149986 513.57915878 C46.33391468 513.59737058 38.38647122 513.60171792 30.43887421 513.58813994 C26.38505989 513.58161032 22.33151748 513.58149271 18.27772903 513.59884644 C14.5635323 513.61458269 10.84982292 513.6117083 7.13563804 513.59427817 C5.16221633 513.58976051 3.18877947 513.60486127 1.21541661 513.62075746 C-6.00007604 513.5647361 -11.43882023 512.7401325 -17.71250916 509.09510803 C-18.36608282 508.71684163 -19.01965649 508.33857524 -19.69303542 507.94884622 C-26.62058251 503.72310657 -30.49598683 496.71433573 -32.71250916 489.09510803 C-32.95301819 486.24760437 -32.95301819 486.24760437 -32.93955994 483.27333069 C-32.93940887 482.15262177 -32.93925781 481.03191284 -32.93910217 479.87724304 C-32.9287796 478.68327911 -32.91845703 477.48931519 -32.90782166 476.25917053 C-32.90499176 475.0246817 -32.90216187 473.79019287 -32.89924622 472.51829529 C-32.88807438 468.58546654 -32.86297479 464.65286766 -32.83750916 460.72010803 C-32.82634741 458.04953845 -32.81835034 455.37897102 -32.81016541 452.70838928 C-32.7881448 446.17055078 -32.75469675 439.63284583 -32.71250916 433.09510803 C-33.3757016 433.10399048 -34.03889404 433.11287292 -34.72218323 433.12202454 C-41.63277049 433.21060759 -48.54319611 433.27088819 -55.45420837 433.31483459 C-58.03240003 433.33493366 -60.6105462 433.36221744 -63.18858337 433.39686584 C-66.89719376 433.4454565 -70.60520071 433.46809461 -74.31407166 433.48573303 C-76.03939621 433.51670074 -76.03939621 433.51670074 -77.79957581 433.54829407 C-83.9032266 433.55000048 -88.06872294 433.50528496 -92.71250916 429.09510803 C-96.28042201 424.56371676 -97.21354439 421.62589372 -97.22044373 415.88417053 C-97.22980367 414.82927429 -97.22980367 414.82927429 -97.2393527 413.75306702 C-97.25524349 411.40840118 -97.24269479 409.06478065 -97.23008728 406.72010803 C-97.23551017 405.03439225 -97.24263377 403.34868121 -97.25132751 401.66297913 C-97.26954398 397.0927109 -97.2625003 392.52280436 -97.24981117 387.95252991 C-97.23967482 383.1667128 -97.24907862 378.38092638 -97.25535583 373.59510803 C-97.26263038 365.55859322 -97.25304958 357.52222551 -97.23399353 349.48573303 C-97.21222515 340.19819856 -97.21927666 330.91101534 -97.24129915 321.62348938 C-97.25945863 313.64539079 -97.26200879 305.66739786 -97.25154448 297.68928528 C-97.24531256 292.92606347 -97.24446562 288.1630067 -97.25769043 283.39979553 C-97.26925628 278.92137736 -97.26120988 274.44341149 -97.2381134 269.96504211 C-97.23283022 268.32275645 -97.23433343 266.68043265 -97.24316406 265.03816223 C-97.25411928 262.79361178 -97.24035849 260.55050438 -97.22044373 258.30604553 C-97.21893562 257.05098206 -97.21742752 255.79591858 -97.21587372 254.50282288 C-96.45219227 249.33279544 -93.95945705 246.27932724 -90.2374115 242.74452209 C-84.96336843 240.27662938 -80.06415857 240.60127518 -74.31407166 240.70448303 C-73.12397491 240.71014282 -71.93387817 240.71580261 -70.7077179 240.72163391 C-66.91723429 240.74397352 -63.12770571 240.79416841 -59.33750916 240.84510803 C-56.76330408 240.86517602 -54.18908415 240.88342626 -51.61485291 240.89979553 C-45.31374737 240.94383059 -39.01319651 241.01071998 -32.71250916 241.09510803 C-32.71619633 239.99019799 -32.7198835 238.88528795 -32.7236824 237.74689579 C-32.81250121 210.85553245 -32.87822198 183.96418815 -32.91975784 157.07270908 C-32.94037843 144.06815946 -32.96848962 131.06370677 -33.01426697 118.05921936 C-33.05414989 106.72381984 -33.07994562 95.38849053 -33.08886313 84.0530228 C-33.09407536 78.05159275 -33.10631591 72.05036353 -33.13542938 66.04899788 C-33.16262123 60.39785358 -33.1709464 54.74699246 -33.16493988 49.09578896 C-33.16603842 47.02419241 -33.17396964 44.95258618 -33.18933105 42.8810463 C-33.20931778 40.04621739 -33.2044166 37.21244893 -33.19352722 34.37759399 C-33.20517859 33.56336474 -33.21682995 32.74913548 -33.22883439 31.9102326 C-33.14150962 23.4637859 -29.54370949 15.25026394 -23.71250916 9.09510803 C-16.34884712 3.17690558 -9.26720683 0.93313051 0 0 Z " fill="#E1E4E6" transform="translate(128.71250915527344,-1.0951080322265625)"/>
<path d="M0 0 C1.9029279 -0.01564648 1.9029279 -0.01564648 3.84429878 -0.03160906 C5.24457522 -0.0229616 6.64484937 -0.013935 8.04512119 -0.00457001 C9.53849459 -0.00918002 11.03186346 -0.01553361 12.52522284 -0.02347898 C16.62564576 -0.04018207 20.72569645 -0.03192159 24.82612073 -0.01953411 C29.24952907 -0.01048984 33.67287307 -0.0244503 38.09626865 -0.0354538 C46.76068805 -0.05325071 55.42496894 -0.04939369 64.08939379 -0.03780323 C71.13106021 -0.02877321 78.17268778 -0.02754305 85.21435833 -0.0318985 C86.2162051 -0.03251143 87.21805187 -0.03312436 88.25025763 -0.03375587 C90.28544232 -0.03503476 92.320627 -0.03633161 94.35581166 -0.03764623 C113.44515324 -0.04905562 132.53441802 -0.03593301 151.623747 -0.01444477 C168.00460508 0.0034238 184.38534976 0.00032478 200.76620579 -0.01811981 C219.7852398 -0.0395249 238.80420646 -0.04795407 257.82325083 -0.03567076 C259.85129455 -0.03439655 261.87933827 -0.03313907 263.90738201 -0.0318985 C264.90523502 -0.0312814 265.90308802 -0.03066429 266.931179 -0.03002849 C273.96418082 -0.02657431 280.99713994 -0.03240548 288.03013515 -0.04181671 C296.60141522 -0.05303417 305.17254875 -0.05000208 313.74381202 -0.02869374 C318.11735342 -0.01817949 322.49065049 -0.01406779 326.8641901 -0.02729034 C330.86818648 -0.03921257 334.87171215 -0.03265475 338.87566585 -0.01138014 C340.32377978 -0.00691329 341.77193351 -0.00918228 343.22002184 -0.01888329 C356.70001054 -0.10225821 356.70001054 -0.10225821 362.62777805 4.50336456 C367.08308545 9.31040676 367.75236515 12.7116375 367.77494907 19.15026093 C367.77862576 19.82913292 367.78230245 20.50800491 367.78609055 21.20744878 C367.79712314 23.48732873 367.80097052 25.76716309 367.80478001 28.04706573 C367.81104504 29.67982884 367.81769187 31.31259053 367.82469273 32.94535065 C367.84573272 38.31233477 367.85609578 43.67931918 367.8660593 49.04633331 C367.87010703 50.89451678 367.87422396 52.7427001 367.87840939 54.59088326 C367.89746175 63.27482141 367.91169209 71.95875106 367.92002136 80.6427061 C367.92979117 90.66291555 367.9561038 100.68290396 367.99652225 110.70303553 C368.02669788 118.45008028 368.04149165 126.19706172 368.04480237 133.9441641 C368.04715142 138.57004274 368.05609281 143.19568524 368.08126354 147.82150078 C368.1045743 152.1758962 368.10876549 156.52990051 368.09850216 160.88434219 C368.0980074 162.47904195 368.10431022 164.07376115 368.1180582 165.66840172 C368.24118976 180.80222703 368.24118976 180.80222703 363.62777805 187.50336456 C358.62623673 191.48418316 354.93082127 192.62728021 348.63752365 192.63758564 C346.74785552 192.64427241 346.74785552 192.64427241 344.82001227 192.65109426 C343.41415257 192.65100496 342.00829288 192.6508151 340.6024332 192.65053558 C339.11506628 192.65383414 337.62770026 192.6575597 336.14033538 192.66167706 C332.04272761 192.67170584 327.94513449 192.67541526 323.84751618 192.67806637 C319.43227364 192.68196675 315.01704272 192.69154518 310.60180759 192.70027924 C299.93479042 192.72004978 289.26777228 192.73010998 278.60074136 192.73900703 C273.5801846 192.74338841 268.55962891 192.74875555 263.53907299 192.7539959 C246.85491467 192.77100773 230.17075701 192.78550308 213.48659134 192.79274464 C209.15613078 192.79465459 204.82567023 192.79657492 200.49520969 192.79853058 C198.88069735 192.79925619 198.88069735 192.79925619 197.23356859 192.79999646 C179.78785827 192.80830118 162.34221642 192.83364577 144.89653601 192.86611126 C126.99475423 192.89915461 109.09300728 192.91719087 91.19119483 192.92038888 C81.13615029 192.92255635 71.08120563 192.93133984 61.02619076 192.95685005 C52.46507793 192.97851975 43.90408924 192.98662585 35.34295209 192.97688327 C30.97359094 192.9723279 26.60448613 192.97429638 22.23515987 192.99364471 C18.23605486 193.01120102 14.23739464 193.01034045 10.2382854 192.99474742 C8.79076243 192.99235985 7.34320927 192.9967542 5.8957326 193.00857607 C-6.26182751 193.10172778 -6.26182751 193.10172778 -10.02261543 190.84788036 C-15.00573034 185.87556199 -16.87163893 182.38087717 -16.88015652 175.29242706 C-16.88639648 174.5891629 -16.89263644 173.88589874 -16.89906549 173.16132355 C-16.91495628 170.81665771 -16.90240758 168.47303718 -16.88980007 166.12836456 C-16.89522297 164.44264878 -16.90234657 162.75693774 -16.91104031 161.07123566 C-16.92925677 156.50096743 -16.9222131 151.93106089 -16.90952396 147.36078644 C-16.89938761 142.57496933 -16.90879141 137.78918291 -16.91506863 133.00336456 C-16.92234318 124.96684975 -16.91276237 116.93048204 -16.89370632 108.89398956 C-16.87193795 99.60645509 -16.87898945 90.31927187 -16.90101194 81.03174591 C-16.91917142 73.05364732 -16.92172159 65.07565439 -16.91125727 57.09754181 C-16.90502535 52.33432 -16.90417841 47.57126323 -16.91740322 42.80805206 C-16.92896907 38.3296339 -16.92092267 33.85166802 -16.89782619 29.37329865 C-16.89254301 27.73101299 -16.89404622 26.08868918 -16.90287685 24.44641876 C-16.91383207 22.20186831 -16.90007128 19.95876092 -16.88015652 17.71430206 C-16.87864841 16.45923859 -16.87714031 15.20417511 -16.87558651 13.91107941 C-16.08585317 8.56468391 -13.83915742 5.64752575 -9.62403244 2.35986757 C-6.02961101 0.3077633 -4.09638576 0.00243255 0 0 Z " fill="#A066AA" transform="translate(48.37222194671631,239.49663543701172)"/>
<path d="M0 0 C6.66859393 5.4832487 12.71373784 11.56537937 18.81030273 17.66503906 C19.99338825 18.84512852 21.17667727 20.02501399 22.3601532 21.20471191 C25.55627919 24.39204695 28.74919542 27.58257832 31.94124866 30.77399158 C33.93560031 32.76763084 35.93066294 34.76055574 37.92598152 36.75322723 C44.88571566 43.70372974 51.84288186 50.65679064 58.79760742 57.61230469 C65.28526766 64.10056766 71.77850647 70.58321076 78.27433819 77.06329179 C83.85336262 82.62926874 89.42855355 88.19906562 95.00073773 93.7718904 C98.32832385 97.099732 101.65745898 100.4259877 104.99044609 103.74842072 C108.11800663 106.86634532 111.24079065 109.9889739 114.35988045 113.1153717 C115.50788806 114.26443026 116.65762228 115.41176663 117.80915833 116.55728912 C119.37455929 118.11503985 120.93374352 119.67875227 122.49143982 121.24420166 C123.36726935 122.11948643 124.24309889 122.99477119 125.14546871 123.89657974 C127 126 127 126 127 128 C114.39510984 128.04643635 101.79024019 128.08192656 89.18528175 128.10362434 C83.3316609 128.11404063 77.47809878 128.12816044 71.62451172 128.15087891 C65.97053834 128.17268416 60.3166213 128.18458482 54.6626091 128.18975449 C52.51056406 128.19343647 50.35852193 128.20062634 48.20650101 128.21146011 C45.18138325 128.22607713 42.15649531 128.22797368 39.13134766 128.22705078 C38.25092804 128.23424133 37.37050842 128.24143188 36.46340942 128.24884033 C25.64950677 128.21337597 17.15374176 126.43677481 9 119 C1.3965975 109.80993706 -0.15973855 100.85278946 -0.11352539 89.23095703 C-0.11367142 88.26447739 -0.11381744 87.29799774 -0.1139679 86.30223083 C-0.11327351 83.1207349 -0.10550333 79.93929816 -0.09765625 76.7578125 C-0.09579039 74.54678377 -0.09436728 72.33575463 -0.09336853 70.12472534 C-0.08955662 64.31492973 -0.07973765 58.50515924 -0.06866455 52.69537354 C-0.05842192 46.76306498 -0.0538648 40.83075235 -0.04882812 34.8984375 C-0.03811419 23.26561398 -0.02105369 11.63280908 0 0 Z " fill="#B0B7BD" transform="translate(352,0)"/>
<path d="M0 0 C1.17783051 -0.01210762 1.17783051 -0.01210762 2.37945557 -0.02445984 C4.0506367 -0.03831437 5.7218463 -0.04903038 7.39306641 -0.05688477 C9.07837391 -0.06829587 10.76364848 -0.08857061 12.44873047 -0.1184082 C28.10770211 -0.39554444 42.5502353 0.93075433 54.38671875 12.34375 C58.66250044 16.90196865 61.93527639 21.40980076 64.203125 27.23828125 C64.64978516 28.35976563 64.64978516 28.35976563 65.10546875 29.50390625 C69.54569907 42.1902786 67.50618634 55.48413875 61.953125 67.48828125 C56.44551491 77.68634859 48.70793456 84.23071944 37.64501953 87.79174805 C32.43227302 89.32554329 27.62467946 89.70575144 22.21484375 89.70703125 C20.85550468 89.71845154 20.85550468 89.71845154 19.46870422 89.73010254 C17.57218155 89.74081892 15.67560027 89.74379152 13.77905273 89.73925781 C10.87971055 89.73827756 7.98295109 89.78015778 5.08398438 89.82421875 C3.23177631 89.82942105 1.37955912 89.83211402 -0.47265625 89.83203125 C-1.33417801 89.84842651 -2.19569977 89.86482178 -3.08332825 89.88171387 C-3.89154526 89.87240845 -4.69976227 89.86310303 -5.5324707 89.85351562 C-6.58976128 89.85659729 -6.58976128 89.85659729 -7.66841125 89.85974121 C-11.12790916 88.84965145 -12.61727867 87.05593271 -14.796875 84.23828125 C-15.29294321 81.48118636 -15.48340782 79.33968814 -15.44384766 76.58984375 C-15.45260925 75.83636658 -15.46137085 75.0828894 -15.47039795 74.30657959 C-15.49233998 71.82488806 -15.47785939 69.34498973 -15.4609375 66.86328125 C-15.46430717 65.13362284 -15.46916105 63.40396673 -15.47543335 61.67431641 C-15.48279758 58.05283011 -15.47211413 54.43196128 -15.44873047 50.81054688 C-15.42024239 46.1730942 -15.43664885 41.53708833 -15.46659279 36.89968872 C-15.48467826 33.32907245 -15.47890213 29.75879807 -15.46595383 26.18817139 C-15.46262324 24.47857491 -15.46669471 22.76894719 -15.47835159 21.05938721 C-15.49108171 18.66766398 -15.47165712 16.27826893 -15.44384766 13.88671875 C-15.45396881 13.18319275 -15.46408997 12.47966675 -15.47451782 11.75482178 C-15.39138829 7.88727961 -14.88383364 6.3432438 -12.38143921 3.32275391 C-8.23533579 -0.02111319 -5.15592518 0.05043974 0 0 Z " fill="#FDFCFD" transform="translate(254.796875,294.76171875)"/>
<path d="M0 0 C0.33 0 0.66 0 1 0 C1.10887507 2.68860931 1.18770594 5.37273158 1.25 8.0625 C1.28351563 8.81466797 1.31703125 9.56683594 1.3515625 10.34179688 C1.45097919 16.0831109 0.28088796 19.27289185 -3 24 C-7.29575092 27.98142769 -10.39794929 29.12539701 -16.17929363 29.12304783 C-17.25815262 29.12503888 -18.3370116 29.12702993 -19.44856328 29.12908131 C-20.63823683 29.12616847 -21.82791038 29.12325563 -23.05363464 29.12025452 C-24.31393205 29.12110894 -25.57422945 29.12196337 -26.87271768 29.12284368 C-30.37763578 29.12508524 -33.88252347 29.12107197 -37.3874377 29.11606562 C-41.16451638 29.11175647 -44.94159327 29.11320788 -48.71867371 29.1139679 C-55.26496476 29.11449283 -61.81124586 29.11134916 -68.35753441 29.10573006 C-77.82242667 29.09761101 -87.2873141 29.09499942 -96.75220946 29.09374207 C-112.10751412 29.09155219 -127.46281346 29.08489383 -142.81811523 29.07543945 C-157.73640923 29.06626369 -172.6547018 29.05918366 -187.57299805 29.05493164 C-188.49220451 29.05466892 -189.41141098 29.05440619 -190.35847219 29.05413551 C-194.96975422 29.05283049 -199.58103627 29.05156678 -204.19231832 29.05032361 C-242.4615493 29.03995298 -280.73077421 29.02226218 -319 29 C-319 23.72 -319 18.44 -319 13 C-317.42517853 12.99853344 -315.85035706 12.99706688 -314.22781372 12.99555588 C-276.8446811 12.95985385 -239.46162757 12.90361261 -202.07856566 12.82207905 C-197.47734487 12.81206159 -192.87612373 12.80221746 -188.27490234 12.79248047 C-187.35888209 12.7905391 -186.44286184 12.78859772 -185.4990834 12.78659752 C-170.66704659 12.75557649 -155.83502525 12.73859658 -141.00296211 12.72680578 C-125.78387232 12.71439476 -110.56486373 12.68689445 -95.3458252 12.64538693 C-85.95486041 12.62025014 -76.5640303 12.60688285 -67.17303139 12.60857043 C-60.73325242 12.60860018 -54.29361063 12.59397298 -47.85388511 12.56783572 C-44.13846938 12.55318811 -40.42333497 12.5449881 -36.70789528 12.55419731 C-32.67731026 12.56401852 -28.64746879 12.54296791 -24.61694336 12.51898193 C-23.44572496 12.52674235 -22.27450657 12.53450277 -21.06779671 12.54249835 C-14.258482 12.47067671 -9.78969764 11.67009223 -4 8 C-2.27957378 5.9787325 -2.27957378 5.9787325 -1.5 3.75 C-1.2009375 3.04359375 -0.901875 2.3371875 -0.59375 1.609375 C-0.29984375 0.81273437 -0.29984375 0.81273437 0 0 Z " fill="#CAD0D7" transform="translate(415,419)"/>
<path d="M0 0 C0 31.68 0 63.36 0 96 C-7.87529997 89.24974288 -7.87529997 89.24974288 -11.18260193 85.94438171 C-11.93267014 85.19713333 -12.68273834 84.44988495 -13.45553589 83.67999268 C-14.25323395 82.88027039 -15.05093201 82.0805481 -15.87280273 81.2565918 C-16.73213913 80.39900772 -17.59147552 79.54142365 -18.47685242 78.65785217 C-20.81295807 76.32537215 -23.14681924 73.99069243 -25.4795177 71.65480781 C-27.92568342 69.20609679 -30.37430328 66.75984173 -32.82252502 64.31318665 C-36.92539264 60.21213234 -41.02616007 56.10898687 -45.12573242 52.00463867 C-49.86993348 47.2549748 -54.61775563 42.50895344 -59.36743206 37.76476544 C-63.45005741 33.68666921 -67.53074208 29.60663875 -71.60979229 25.52496654 C-74.04439856 23.08879917 -76.47968055 20.65331762 -78.91671562 18.2195797 C-81.62498923 15.51471555 -84.32918745 12.80580033 -87.03295898 10.09643555 C-87.84482666 9.2865921 -88.65669434 8.47674866 -89.49316406 7.6423645 C-90.2234935 6.90921524 -90.95382294 6.17606598 -91.70628357 5.42070007 C-92.3461341 4.78047252 -92.98598463 4.14024496 -93.64522457 3.48061657 C-95 2 -95 2 -95 1 C-82.7611933 0.86955395 -70.522386 0.73916459 -58.28357792 0.60884857 C-52.6012424 0.54834256 -46.9189071 0.48781667 -41.23657227 0.42724609 C-35.75771063 0.36884515 -30.27884845 0.31049545 -24.79998589 0.25218201 C-22.70470599 0.22987207 -20.6094263 0.20754334 -18.5141468 0.18519592 C-15.59024227 0.15401387 -12.66633704 0.1228973 -9.74243164 0.09179688 C-8.8670575 0.08244614 -7.99168335 0.0730954 -7.08978271 0.0634613 C-1.11405216 0 -1.11405216 0 0 0 Z " fill="#C9D0D7" transform="translate(480,127)"/>
<path d="M0 0 C5.48235298 0.24919786 7.38191441 2.03809049 11 6 C13.06730776 8.51286057 15.03978215 11.09056358 17 13.6875 C17.83180786 14.78179321 17.83180786 14.78179321 18.68041992 15.89819336 C24.93028569 24.16080219 30.98060409 32.56867696 37 41 C40.34822933 39.88392356 40.76980199 39.30829985 42.71484375 36.52734375 C43.23046875 35.79990967 43.74609375 35.07247559 44.27734375 34.32299805 C45.09912109 33.14217651 45.09912109 33.14217651 45.9375 31.9375 C47.10170718 30.29605349 48.2670982 28.65544607 49.43359375 27.015625 C50.0251123 26.18095703 50.61663086 25.34628906 51.22607422 24.48632812 C53.93794215 20.68538358 56.70809502 16.92989705 59.5 13.1875 C59.97945068 12.5370874 60.45890137 11.8866748 60.95288086 11.21655273 C68.37072177 1.29094254 68.37072177 1.29094254 73.5 0.375 C77.97313797 1.17377464 79.2067795 2.45722843 82 6 C82.49587271 8.78565821 82.68642372 10.96152521 82.64697266 13.74023438 C82.65573425 14.50346512 82.66449585 15.26669586 82.67352295 16.05305481 C82.69546735 18.56720416 82.68098339 21.07958388 82.6640625 23.59375 C82.6674321 25.34582862 82.67228592 27.09790496 82.67855835 28.84997559 C82.68592291 32.51853737 82.67523802 36.18648965 82.65185547 39.85498047 C82.62336744 44.55296086 82.63977372 49.24951309 82.66971779 53.9474411 C82.68780233 57.56437911 82.68202754 61.18097957 82.66907883 64.79792786 C82.66574799 66.52985301 82.6698206 68.26180899 82.68147659 69.99369812 C82.69420509 72.4165439 82.67478404 74.83709074 82.64697266 77.25976562 C82.66215439 78.32908073 82.66215439 78.32908073 82.67764282 79.41999817 C82.5959383 83.27000269 82.0809693 84.89866681 79.64706421 87.94470215 C77 90 77 90 74 90.625 C69.79039522 89.747999 68.57676037 88.4565907 66 85 C65.24641207 81.26951417 65.27869654 77.58910255 65.29296875 73.79296875 C65.27784744 72.71243729 65.26272614 71.63190582 65.24714661 70.51863098 C65.20423242 67.07470898 65.19542756 63.63166287 65.1875 60.1875 C65.16435875 57.84958603 65.1389942 55.51169293 65.11132812 53.17382812 C65.04843903 47.44921048 65.01353435 41.72493562 65 36 C62.75109102 38.72010681 60.50427304 41.44193339 58.2578125 44.1640625 C57.30805542 45.31273804 57.30805542 45.31273804 56.33911133 46.48461914 C52.59445703 51.02455506 48.92219245 55.59745782 45.4296875 60.3359375 C43.77447542 62.26249582 42.14581944 63.63974066 40 65 C36.50245238 65.19797439 34.17863482 64.94290786 31.37890625 62.703125 C25.57685377 56.4140897 20.98929329 48.89229094 16.23925781 41.79589844 C14.87774451 39.82283069 13.44257731 37.9143379 12 36 C12.00079559 36.60277267 12.00159119 37.20554535 12.00241089 37.82658386 C12.00485017 44.10504328 11.96564823 50.38226679 11.90234375 56.66040039 C11.88418444 59.00278988 11.8766151 61.34528654 11.87988281 63.68774414 C11.88273993 67.05699564 11.84742199 70.42402496 11.8046875 73.79296875 C11.8183284 75.36198189 11.8183284 75.36198189 11.83224487 76.96269226 C11.69110722 84.03588251 11.69110722 84.03588251 9.72076416 86.78457642 C7.19968448 88.99360938 5.16922372 89.96953973 1.875 90.5625 C-1.63224868 89.87629917 -2.80410828 88.76519697 -5 86 C-6.49041537 83.01916926 -6.17336757 79.96250677 -6.19287109 76.69213867 C-6.20104858 75.93909958 -6.20922607 75.18606049 -6.21765137 74.41020203 C-6.24250731 71.91279905 -6.25902178 69.41545292 -6.2734375 66.91796875 C-6.27876118 66.06550379 -6.28408485 65.21303883 -6.28956985 64.33474159 C-6.31630227 59.8226982 -6.33567688 55.31068249 -6.35009766 50.79858398 C-6.36674628 46.13767921 -6.41152505 41.47748142 -6.4624691 36.81684399 C-6.49612217 33.23345628 -6.5076729 29.65023679 -6.51332474 26.0667057 C-6.52004259 24.34868275 -6.53527864 22.63067107 -6.55921555 20.91280174 C-6.59083032 18.50662982 -6.59091035 16.10236994 -6.58349609 13.69604492 C-6.59990143 12.98780579 -6.61630676 12.27956665 -6.63320923 11.54986572 C-6.58367784 7.61826707 -6.10792852 6.12732162 -3.52603149 3.08149719 C-2.6924411 2.39460312 -1.85885071 1.70770905 -1 1 C-0.67 0.67 -0.34 0.34 0 0 Z " fill="#FDFCFD" transform="translate(96,294)"/>
<path d="M0 0 C33.0029321 0 33.0029321 0 40.5703125 7.33203125 C46.47525279 14.22112826 48.50901286 22.15241501 48.3125 31.09375 C47.41106599 39.47708631 44.15116403 46.30447775 38 52 C28 57 28 57 0 57 C0 38.19 0 19.38 0 0 Z " fill="#A067AA" transform="translate(257,311)"/>
<path d="M0 0 C4.47313797 0.79877464 5.7067795 2.08222843 8.5 5.625 C8.99587271 8.41065821 9.18642372 10.58652521 9.14697266 13.36523438 C9.16011505 14.51008049 9.16011505 14.51008049 9.17352295 15.67805481 C9.19546735 18.19220416 9.18098339 20.70458388 9.1640625 23.21875 C9.1674321 24.97082862 9.17228592 26.72290496 9.17855835 28.47497559 C9.18592291 32.14353737 9.17523802 35.81148965 9.15185547 39.47998047 C9.12336744 44.17796086 9.13977372 48.87451309 9.16971779 53.5724411 C9.18780233 57.18937911 9.18202754 60.80597957 9.16907883 64.42292786 C9.16574799 66.15485301 9.1698206 67.88680899 9.18147659 69.61869812 C9.19420509 72.0415439 9.17478404 74.46209074 9.14697266 76.88476562 C9.15709381 77.59764236 9.16721497 78.3105191 9.17764282 79.04499817 C9.096428 82.87192755 8.57365266 84.5311772 6.18222046 87.57751465 C3.5 89.625 3.5 89.625 -0.0625 90.125 C-3.5902622 89.61187095 -5.05588357 89.16312091 -7.5 86.625 C-8.67738927 83.09283219 -8.67083204 79.88054034 -8.69287109 76.20361328 C-8.70104858 75.45042816 -8.70922607 74.69724304 -8.71765137 73.92123413 C-8.74246013 71.42926829 -8.75900797 68.93735916 -8.7734375 66.4453125 C-8.77876118 65.59376461 -8.78408485 64.74221672 -8.78956985 63.86486435 C-8.81627927 59.35930024 -8.83566292 54.85376365 -8.85009766 50.34814453 C-8.86344898 46.61938003 -8.89132607 42.89116121 -8.93212891 39.16259766 C-8.98140914 34.65924162 -9.00621255 30.15638136 -9.01332474 25.65276718 C-9.0200415 23.93753522 -9.03527473 22.22231451 -9.05921555 20.50723648 C-9.09082799 18.10596203 -9.09091097 15.70660358 -9.08349609 13.30517578 C-9.09990143 12.59850769 -9.11630676 11.8918396 -9.13320923 11.16375732 C-9.08494586 7.34119334 -8.57733466 5.7231298 -6.18228149 2.68405151 C-3.5 0.625 -3.5 0.625 0 0 Z " fill="#FDFCFD" transform="translate(348.5,294.375)"/>
<path d="M0 0 C3.33761045 2.15090451 4.73470933 3.20412799 6 7 C6.10530797 9.3802758 6.14872025 11.76342425 6.16113281 14.14599609 C6.16609772 14.8699205 6.17106262 15.59384491 6.17617798 16.33970642 C6.19078153 18.73429312 6.19759837 21.12881359 6.203125 23.5234375 C6.2088777 25.1886902 6.21463542 26.85394289 6.22039795 28.51919556 C6.23090262 32.01117257 6.23674886 35.5031266 6.24023438 38.99511719 C6.24571968 43.46635225 6.26975059 47.93728289 6.29820633 52.40842247 C6.31684303 55.84855026 6.32203884 59.28860484 6.32357025 62.72877884 C6.3265947 64.3769866 6.33461627 66.02519313 6.34775543 67.67335129 C6.36483877 69.98087394 6.3629305 72.28765435 6.35644531 74.59521484 C6.36009094 75.90743011 6.36373657 77.21964539 6.36749268 78.57162476 C5.86962452 83.21628562 4.25473337 85.74526663 1 89 C-6.06873119 89.68407076 -6.06873119 89.68407076 -9.09605408 87.46032715 C-11.67676068 84.12547271 -11.56930679 81.222219 -11.53344727 77.17382812 C-11.54206284 76.38962997 -11.55067841 75.60543182 -11.55955505 74.79747009 C-11.58223587 72.20839319 -11.57547313 69.62039673 -11.56640625 67.03125 C-11.57164067 65.23050616 -11.57791648 63.42976508 -11.58518982 61.62902832 C-11.59559771 57.85623262 -11.59102671 54.08381401 -11.57641602 50.31103516 C-11.55922148 45.47509766 -11.58272913 40.64034754 -11.61790562 35.80454254 C-11.63986009 32.08644735 -11.63844303 28.36863718 -11.6301403 24.65049744 C-11.62931982 22.86749468 -11.63620172 21.0844712 -11.65091133 19.30152893 C-11.66832342 16.8089993 -11.65384546 14.31861495 -11.63110352 11.82617188 C-11.64279572 11.08942734 -11.65448792 10.3526828 -11.66653442 9.59361267 C-11.5967656 5.83739597 -11.28538854 4.29824368 -8.64805603 1.54211426 C-5.38614842 -0.35748083 -3.71838989 -0.61973165 0 0 Z " fill="#FCFAFC" transform="translate(212,295)"/>
</svg>
