<?xml version="1.0" encoding="UTF-8"?>
<svg version="1.1" xmlns="http://www.w3.org/2000/svg" width="512" height="512">
<path d="M0 0 C1.36125 1.0209375 1.36125 1.0209375 2.75 2.0625 C3.719375 2.76375 4.68875 3.465 5.6875 4.1875 C13.15917429 10.58058613 18.715902 20.46067065 20.75 30.0625 C20.69428673 32.09293932 20.63854054 34.12337774 20.58251953 36.15380859 C20.47837833 48.68377329 25.38673701 56.64131368 32.25683594 66.79003906 C34.38197868 70.0243145 36.21251161 73.3831847 38 76.8125 C38.81210937 78.35164063 38.81210937 78.35164063 39.640625 79.921875 C40.00671875 80.62828125 40.3728125 81.3346875 40.75 82.0625 C56.30714184 72.23125064 65.41288418 60.55747013 72.796875 43.66796875 C74.95012175 38.91141138 76.97953707 36.59998028 81.75 34.0625 C86.73079383 32.40223539 91.05273629 32.46346575 95.9375 34.1875 C99.82196678 36.77714452 102.63657021 39.83564041 104.75 44.0625 C105.84517807 52.79263379 103.65863291 59.34056669 99.75 67.0625 C99.18023437 68.18914062 98.61046875 69.31578125 98.0234375 70.4765625 C88.42914177 88.62663524 73.59040516 103.01361873 55.75 113.0625 C55.09 113.0625 54.43 113.0625 53.75 113.0625 C56.06 120.6525 58.37 128.2425 60.75 136.0625 C62.338125 135.7325 63.92625 135.4025 65.5625 135.0625 C84.02480088 132.02190779 101.3508177 133.73337649 117.0390625 144.65625 C128.56481411 154.09045595 135.41968789 168.542863 137.75 183.0625 C138.32147613 189.04957548 138.55636542 195.05315085 138.75 201.0625 C139.28141602 201.27753174 139.81283203 201.49256348 140.36035156 201.71411133 C163.45802211 211.13865335 186.00248234 222.44063434 204.3203125 239.67578125 C206.74291443 241.418889 206.74291443 241.418889 209.7734375 240.39453125 C210.75570313 239.95496094 211.73796875 239.51539063 212.75 239.0625 C225.33867226 234.36330385 237.35310008 234.89840201 249.75 240.0625 C265.219796 247.34354006 275.94776511 259.627033 282.08105469 275.56079102 C286.95495576 289.68976773 287.12695244 307.44072585 280.75 321.0625 C274.99707464 332.30007958 266.67194305 340.60300999 254.75 345.0625 C242.78466931 348.62891749 230.02157608 347.3003826 218.75 342.0625 C204.03680887 333.59074482 195.33323399 322.49323885 188.75 307.0625 C188.17378906 305.72638672 188.17378906 305.72638672 187.5859375 304.36328125 C183.90209522 293.67325294 184.46688155 279.05461062 186.75 268.0625 C169.2161037 254.37459458 150.04919285 241.16223095 128.75 234.0625 C128.49347656 234.93390625 128.23695313 235.8053125 127.97265625 236.703125 C124.39036726 246.54583597 116.87812955 254.59493571 109.75 262.0625 C108.94175781 262.98289062 108.94175781 262.98289062 108.1171875 263.921875 C97.40961809 275.65177516 81.10688329 283.14753604 65.75 286.0625 C64.76 286.0625 63.77 286.0625 62.75 286.0625 C62.69983509 291.87506919 62.66392626 297.68750705 62.64013672 303.50024414 C62.63019904 305.46966757 62.61664424 307.43907673 62.59912109 309.40844727 C62.49184935 321.7920233 62.93515533 333.80360278 64.75 346.0625 C65.54792969 346.00046387 66.34585937 345.93842773 67.16796875 345.87451172 C76.6918857 345.24560479 83.43742985 348.07807239 91 353.75 C101.55635414 363.31669594 108.00616485 378.02326936 108.95263672 392.06982422 C109.09375304 395.46515317 109.16056898 398.85188292 109.1875 402.25 C109.20296875 403.87083496 109.20296875 403.87083496 109.21875 405.52441406 C109.03921966 421.89658332 103.61448341 437.00773339 92.16015625 448.93359375 C83.79777012 456.32014228 75.91121481 458.71968472 64.97265625 458.46484375 C56.01935218 457.89807681 48.49730283 452.87711806 42.55859375 446.3828125 C32.19864787 433.09165083 28.57439907 419.00729261 28.5 402.5 C28.479375 401.38302734 28.45875 400.26605469 28.4375 399.11523438 C28.39216757 389.34042839 29.95950677 380.83543071 34.0703125 371.94921875 C36.38763893 366.41215611 35.3526585 362.46024893 33.625 356.875 C29.43904335 342.37043516 28.43667858 328.39303423 28.54418945 313.39038086 C28.56259661 310.73606838 28.56469721 308.08210453 28.56445312 305.42773438 C28.58195338 297.244213 28.69699615 289.19168975 29.75 281.0625 C29.04875 280.66160156 28.3475 280.26070313 27.625 279.84765625 C16.9626541 273.45894084 10.76697087 265.81121369 4.75 255.0625 C-12.61858639 261.7332297 -28.80690891 270.48384409 -44.27490234 280.78759766 C-46.00049177 281.90144537 -47.78763314 282.91874354 -49.58203125 283.91796875 C-53.47412001 286.17304164 -55.79468704 287.53099277 -57.109375 291.953125 C-57.41546835 294.18021799 -57.66147261 296.41627184 -57.8515625 298.65625 C-58.98591925 308.3538881 -64.39409989 316.50354169 -70.25 324.0625 C-70.89066406 324.90167969 -71.53132813 325.74085938 -72.19140625 326.60546875 C-80.57660075 336.61360412 -94.19957977 344.46738678 -107.25 346.0625 C-108.02835205 346.05621582 -108.8067041 346.04993164 -109.60864258 346.04345703 C-113.39081062 346.08452292 -116.19467559 346.2006915 -119.19384766 348.64990234 C-121.02745482 350.87024917 -122.61693491 353.14896435 -124.1875 355.5625 C-124.77523193 356.40949463 -125.36296387 357.25648926 -125.96850586 358.12915039 C-130.35356486 364.50596215 -134.58074612 371.02154656 -138.61108398 377.62890625 C-141.66502466 382.54897651 -144.7027624 385.87378912 -150.0625 388.375 C-155.51393387 389.55079946 -159.55346321 388.9433941 -164.5 386.375 C-168.55897793 382.96176856 -170.73926894 379.86708307 -172.1875 374.75 C-172.33697023 365.93125619 -167.71895254 359.10764912 -162.875 352.0625 C-162.26374268 351.14968262 -161.65248535 350.23686523 -161.02270508 349.29638672 C-158.01013168 344.85391425 -154.9150172 340.56534608 -151.47265625 336.4453125 C-144.67199172 328.29354698 -141.0495255 323.48599587 -141.2578125 312.5625 C-141.22638297 298.48207081 -131.60343391 286.61565136 -122.25 277.0625 C-121.73179688 276.50820313 -121.21359375 275.95390625 -120.6796875 275.3828125 C-114.24007222 269.1454888 -102.15820269 262.31841841 -93.13452148 261.98413086 C-92.38759033 261.99839111 -91.64065918 262.01265137 -90.87109375 262.02734375 C-79.38689755 262.02512351 -73.03662554 260.90671145 -64.25 253.0625 C-62.21207217 251.6919037 -60.14958075 250.35701844 -58.0625 249.0625 C-57.14082031 248.485 -56.21914062 247.9075 -55.26953125 247.3125 C-54.26986328 246.69375 -54.26986328 246.69375 -53.25 246.0625 C-66.84776295 229.24421424 -88.00343898 214.36660601 -109.25 209.0625 C-114.55366742 209.47175938 -119.09690561 212.2804621 -123.80078125 214.58984375 C-138.24609024 220.75731995 -157.32563145 220.29838621 -171.89453125 214.609375 C-181.49187087 210.18499026 -188.55096833 203.90935651 -194.1875 195 C-196.56205821 188.55901085 -196.36418804 180.09749737 -194.55859375 173.55859375 C-193.61594841 171.54314703 -192.56860495 169.85233054 -191.25 168.0625 C-190.84910156 167.47339844 -190.44820312 166.88429687 -190.03515625 166.27734375 C-182.70407313 156.60881384 -170.98388709 151.87701948 -159.4296875 149.4765625 C-142.32311604 147.24892543 -125.54028636 149.53822799 -111.12109375 159.5390625 C-106.54617461 163.23456954 -102.24496437 167.81881973 -100.49438477 173.52587891 C-98.89747395 176.78110814 -97.64707255 177.19281138 -94.296875 178.45703125 C-93.29188965 178.85083984 -92.2869043 179.24464844 -91.25146484 179.65039062 C-89.64198975 180.25657227 -89.64198975 180.25657227 -88 180.875 C-67.25451929 189.11321125 -50.17722214 200.53448202 -34.25 216.0625 C-33.74855469 216.54879883 -33.24710938 217.03509766 -32.73046875 217.53613281 C-24.51800337 225.52649326 -24.51800337 225.52649326 -23.25 228.0625 C-15.71432544 227.0214649 -7.10756522 225.24529668 -1.25 220.0625 C1.17461032 215.56394614 1.1462062 210.25794343 1.51611328 205.25830078 C3.29640233 188.54439713 14.98859195 169.4564986 27.56640625 158.640625 C30.04828162 156.26332698 30.04828162 156.26332698 29.79296875 153.21484375 C29.51066406 152.15394531 29.22835937 151.09304687 28.9375 150 C28.45216797 148.14375 28.45216797 148.14375 27.95703125 146.25 C27.55490861 144.85410295 27.15255357 143.45827284 26.75 142.0625 C26.33640184 140.52105787 25.92367437 138.97938192 25.51171875 137.4375 C19.53499985 115.75694675 10.17515506 93.1117291 -2.60546875 74.52734375 C-4.25 72.0625 -4.25 72.0625 -4.25 70.0625 C-4.92804688 70.03671875 -5.60609375 70.0109375 -6.3046875 69.984375 C-18.89871487 69.21687195 -29.31190081 64.35189535 -38.1015625 55.1171875 C-47.34232559 43.41222092 -50.39895676 30.76623782 -49.25 16.0625 C-47.49075091 8.02473321 -42.98296437 1.52421361 -36.359375 -3.3203125 C-24.78488526 -9.63768667 -10.64969489 -6.34885657 0 0 Z " fill="#8DBE00" transform="translate(211.25,29.9375)"/>
<path d="M0 0 C0.83217041 0.00563965 1.66434082 0.0112793 2.52172852 0.01708984 C15.91264985 0.2806547 28.9675445 5.02245911 38.8203125 14.34375 C52.80045183 29.59481109 55.98310835 47.39172466 56.625 67.3125 C57.15641602 67.52753174 57.68783203 67.74256348 58.23535156 67.96411133 C81.33302211 77.38865335 103.87748234 88.69063434 122.1953125 105.92578125 C124.61791443 107.668889 124.61791443 107.668889 127.6484375 106.64453125 C128.63070312 106.20496094 129.61296875 105.76539063 130.625 105.3125 C143.21367226 100.61330385 155.22810008 101.14840201 167.625 106.3125 C183.094796 113.59354006 193.82276511 125.877033 199.95605469 141.81079102 C204.82995576 155.93976773 205.00195244 173.69072585 198.625 187.3125 C192.87207464 198.55007958 184.54694305 206.85300999 172.625 211.3125 C160.65966931 214.87891749 147.89657608 213.5503826 136.625 208.3125 C121.91180887 199.84074482 113.20823399 188.74323885 106.625 173.3125 C106.24085938 172.42175781 105.85671875 171.53101563 105.4609375 170.61328125 C101.77709522 159.92325294 102.34188155 145.30461062 104.625 134.3125 C87.0911037 120.62459458 67.92419285 107.41223095 46.625 100.3125 C46.33625 101.26125 46.0475 102.21 45.75 103.1875 C44.625 106.3125 44.625 106.3125 42.625 108.3125 C40.84765625 109.0234375 40.84765625 109.0234375 38.6875 109.6875 C34.18797547 111.10763979 29.79763954 112.74111711 25.3984375 114.4453125 C10.1768451 119.20473998 -5.48333075 116.7861195 -19.4375 109.7734375 C-33.00298238 101.82255755 -41.72977114 88.80611565 -45.8125 73.75 C-50.83480891 52.76364963 -46.52593979 31.07838211 -36.375 12.3125 C-33.38057677 8.56459934 -30.07585735 7.03167217 -25.6875 5.1875 C-24.52863281 4.68992188 -23.36976563 4.19234375 -22.17578125 3.6796875 C-14.89637561 0.89938569 -7.75997927 -0.05555882 0 0 Z " fill="#8DBF00" transform="translate(293.375,163.6875)"/>
<path d="M0 0 C1.36125 1.0209375 1.36125 1.0209375 2.75 2.0625 C4.2040625 3.114375 4.2040625 3.114375 5.6875 4.1875 C13.15917429 10.58058613 18.715902 20.46067065 20.75 30.0625 C20.69428673 32.09293932 20.63854054 34.12337774 20.58251953 36.15380859 C20.47837833 48.68377329 25.38673701 56.64131368 32.25683594 66.79003906 C34.38197868 70.0243145 36.21251161 73.3831847 38 76.8125 C38.54140625 77.83859375 39.0828125 78.8646875 39.640625 79.921875 C40.00671875 80.62828125 40.3728125 81.3346875 40.75 82.0625 C56.30714184 72.23125064 65.41288418 60.55747013 72.796875 43.66796875 C74.95012175 38.91141138 76.97953707 36.59998028 81.75 34.0625 C86.73079383 32.40223539 91.05273629 32.46346575 95.9375 34.1875 C99.82196678 36.77714452 102.63657021 39.83564041 104.75 44.0625 C105.84517807 52.79263379 103.65863291 59.34056669 99.75 67.0625 C99.18023437 68.18914062 98.61046875 69.31578125 98.0234375 70.4765625 C88.42914177 88.62663524 73.59040516 103.01361873 55.75 113.0625 C55.09 113.0625 54.43 113.0625 53.75 113.0625 C54.06807617 114.09189697 54.06807617 114.09189697 54.39257812 115.14208984 C55.34794305 118.2396769 56.29902294 121.33856317 57.25 124.4375 C57.58386719 125.51773438 57.91773438 126.59796875 58.26171875 127.7109375 C58.57753906 128.7421875 58.89335937 129.7734375 59.21875 130.8359375 C59.51201172 131.78903809 59.80527344 132.74213867 60.10742188 133.72412109 C60.75 136.0625 60.75 136.0625 60.75 138.0625 C59.24373047 138.75472656 59.24373047 138.75472656 57.70703125 139.4609375 C48.09427208 144.002919 39.90286207 149.24983443 31.75 156.0625 C29.47815158 153.79065158 29.26302095 152.75023592 28.55859375 149.6796875 C28.34122559 148.77226807 28.12385742 147.86484863 27.89990234 146.92993164 C27.66480957 145.9424292 27.4297168 144.95492676 27.1875 143.9375 C20.99376588 119.31518515 11.16963596 95.45501523 -2.92529297 74.27075195 C-4.25 72.0625 -4.25 72.0625 -4.25 70.0625 C-4.92804688 70.03671875 -5.60609375 70.0109375 -6.3046875 69.984375 C-18.89871487 69.21687195 -29.31190081 64.35189535 -38.1015625 55.1171875 C-47.34232559 43.41222092 -50.39895676 30.76623782 -49.25 16.0625 C-47.49075091 8.02473321 -42.98296437 1.52421361 -36.359375 -3.3203125 C-24.78488526 -9.63768667 -10.64969489 -6.34885657 0 0 Z " fill="#709300" transform="translate(211.25,29.9375)"/>
<path d="M0 0 C0.83217041 0.00563965 1.66434082 0.0112793 2.52172852 0.01708984 C15.91264985 0.2806547 28.9675445 5.02245911 38.8203125 14.34375 C52.67947564 29.46283707 56.51649723 47.11486788 55.73730469 67.01513672 C55.08105622 80.43969784 51.01162006 96.86051656 43.625 108.3125 C41.4296875 109 41.4296875 109 38.625 109.3125 C35.28809733 110.53858532 31.98300214 111.81836682 28.68359375 113.140625 C15.32169124 118.33267855 0.34417689 117.88846963 -12.9375 112.8515625 C-27.51433263 106.32511698 -37.09961982 95.99298783 -43.375 81.3125 C-51.34545883 59.07539149 -47.7447134 36.65584639 -38.15625 15.60546875 C-35.01893091 9.80555648 -31.71808947 7.72180713 -25.6875 5.1875 C-24.52863281 4.68992188 -23.36976563 4.19234375 -22.17578125 3.6796875 C-14.89637561 0.89938569 -7.75997927 -0.05555882 0 0 Z " fill="#A5D204" transform="translate(293.375,163.6875)"/>
<path d="M0 0 C10.44136188 7.84464058 17.635113 21.82438684 19.72314453 34.57470703 C20.31584328 39.76683167 20.3961189 44.96609156 20.4375 50.1875 C20.45296875 51.80833496 20.45296875 51.80833496 20.46875 53.46191406 C20.28921966 69.83408332 14.86448341 84.94523339 3.41015625 96.87109375 C-4.95222988 104.25764228 -12.83878519 106.65718472 -23.77734375 106.40234375 C-32.73064782 105.83557681 -40.25269717 100.81461806 -46.19140625 94.3203125 C-56.55135213 81.02915083 -60.17560093 66.94479261 -60.25 50.4375 C-60.270625 49.32052734 -60.29125 48.20355469 -60.3125 47.05273438 C-60.38589405 31.22714183 -55.62662769 17.79322355 -45 6 C-31.92240093 -7.05477604 -16.0876532 -10.74053394 0 0 Z " fill="#A5D204" transform="translate(300,382)"/>
<path d="M0 0 C3.4808334 2.9006945 5.98842885 5.88865593 8.203125 9.8359375 C8.54085937 10.42890625 8.87859375 11.021875 9.2265625 11.6328125 C12.98482974 19.70101923 12.16843557 29.65838727 9.640625 37.9609375 C2.81976296 56.01332502 -9.06579278 68.35370142 -26.47265625 76.4296875 C-31.31253921 78.47711155 -35.87130121 79.8595577 -41.15551758 79.81689453 C-44.93768562 79.85796042 -47.74155059 79.974129 -50.74072266 82.42333984 C-52.57432982 84.64368667 -54.16380991 86.92240185 -55.734375 89.3359375 C-56.32210693 90.18293213 -56.90983887 91.02992676 -57.51538086 91.90258789 C-61.90043986 98.27939965 -66.12762112 104.79498406 -70.15795898 111.40234375 C-73.21189966 116.32241401 -76.2496374 119.64722662 -81.609375 122.1484375 C-87.06080887 123.32423696 -91.10033821 122.7168316 -96.046875 120.1484375 C-100.10585293 116.73520606 -102.28614394 113.64052057 -103.734375 108.5234375 C-103.88384523 99.70469369 -99.26582754 92.88108662 -94.421875 85.8359375 C-93.81061768 84.92312012 -93.19936035 84.01030273 -92.56958008 83.06982422 C-89.55700668 78.62735175 -86.4618922 74.33878358 -83.01953125 70.21875 C-76.21886672 62.06698448 -72.5964005 57.25943337 -72.8046875 46.3359375 C-72.77325797 32.25550831 -63.15030891 20.38908886 -53.796875 10.8359375 C-53.27867188 10.28164063 -52.76046875 9.72734375 -52.2265625 9.15625 C-39.4426217 -3.22610103 -15.73511454 -10.28091839 0 0 Z " fill="#8DBE00" transform="translate(142.796875,296.1640625)"/>
<path d="M0 0 C11.91208404 9.82012153 20.60284834 23.62854133 23 39 C24.77495572 59.96967517 24.77495572 59.96967517 21 67 C18.70715226 68.58506854 16.80795401 69.68811749 14.3125 70.8125 C13.71244141 71.11091797 13.11238281 71.40933594 12.49414062 71.71679688 C2.39987367 76.51997653 -9.72739781 76.41280628 -20.1875 72.9375 C-26.5099708 70.45492804 -31.7040569 67.21312945 -37 63 C-38.03125 62.2575 -39.0625 61.515 -40.125 60.75 C-53.4380306 48.01579682 -59.93797612 31.39682853 -60.375 13.1875 C-60.03120408 1.35109775 -60.03120408 1.35109775 -57 -3 C-40.18470481 -17.15057628 -16.48089723 -11.7559212 0 0 Z " fill="#A5D204" transform="translate(473,277)"/>
<path d="M0 0 C5.65194778 4.56550426 10.37271584 10.30398029 11.87109375 17.5234375 C12.71059783 26.53841978 11.73095242 33.36449807 6.2578125 40.6796875 C-2.31103939 50.86351148 -13.30251965 57.54972592 -26.75927734 58.76000977 C-44.17509467 59.58541105 -60.51920371 58.65164105 -74.12890625 46.5234375 C-81.30593385 39.60565615 -84.25014633 34.06789125 -84.56640625 24.0859375 C-84.4258959 17.88515484 -83.81633039 13.5286245 -80.12890625 8.5234375 C-79.72800781 7.93433594 -79.32710937 7.34523437 -78.9140625 6.73828125 C-71.58297938 -2.93024866 -59.86279334 -7.66204302 -48.30859375 -10.0625 C-31.20202229 -12.29013707 -14.41919261 -10.00083451 0 0 Z " fill="#A5D204" transform="translate(100.12890625,189.4765625)"/>
<path d="M0 0 C6.63420267 1.27504195 12.42860871 3.18989515 18.5625 6 C19.4272998 6.39372803 20.29209961 6.78745605 21.18310547 7.19311523 C33.46485377 12.9276827 44.75730321 20.10548723 55 29 C55.80566406 29.69609375 56.61132812 30.3921875 57.44140625 31.109375 C74.64837185 46.2967437 74.64837185 46.2967437 77 51 C82.28781791 50.40876367 86.53685138 48.63195182 91.3125 46.4375 C98.90728963 43 98.90728963 43 100 43 C100.02578125 43.98097656 100.0515625 44.96195313 100.078125 45.97265625 C100.41310958 54.74355962 101.64831776 62.5042488 104.2578125 70.890625 C105.00221724 74.00928905 105.2160815 75.12145004 104 78 C102.06079102 79.30517578 102.06079102 79.30517578 99.50390625 80.4453125 C98.56192383 80.8769873 97.61994141 81.30866211 96.64941406 81.75341797 C95.63073242 82.20604004 94.61205078 82.65866211 93.5625 83.125 C91.4421117 84.10527837 89.32363743 85.0897068 87.20703125 86.078125 C85.62462646 86.81579102 85.62462646 86.81579102 84.01025391 87.56835938 C70.33799638 94.07072094 57.88964847 102.20371722 45.57202148 110.96533203 C44 112 44 112 43 112 C42.65388672 110.71416016 42.65388672 110.71416016 42.30078125 109.40234375 C39.24588849 98.13023548 39.24588849 98.13023548 31.234375 90.25 C28.52289713 88.74825841 25.79592382 87.33675517 23 86 C25.71854171 83.12860855 28.43961532 80.89768249 31.765625 78.765625 C32.65507812 78.19199219 33.54453125 77.61835938 34.4609375 77.02734375 C35.38132813 76.44082031 36.30171875 75.85429687 37.25 75.25 C38.18585938 74.64800781 39.12171875 74.04601562 40.0859375 73.42578125 C42.38778998 71.94601894 44.69250804 70.47094667 47 69 C31.47105539 50.47475913 10.99848068 38.16530442 -12 31 C-11.58041016 30.5244165 -11.16082031 30.04883301 -10.72851562 29.55883789 C-2.20104671 19.84715475 0.37552245 12.8929374 0 0 Z " fill="#709300" transform="translate(111,207)"/>
<path d="M0 0 C1.36125 1.0209375 1.36125 1.0209375 2.75 2.0625 C4.2040625 3.114375 4.2040625 3.114375 5.6875 4.1875 C13.2117647 10.62558476 18.6122254 20.44030127 20.75 30.0625 C21.54699601 41.65309917 21.58989383 50.59960839 14.17578125 60.07421875 C8.65971685 66.20746518 1.42181234 69.58297475 -6.8046875 70.15625 C-16.09732002 69.79998294 -23.72235919 66.28036562 -31.25 61.0625 C-32.1575 60.44375 -33.065 59.825 -34 59.1875 C-42.48966035 51.16948745 -48.56227655 39.9073454 -49.5859375 28.23046875 C-49.69708736 16.9042984 -48.32904586 8.19101609 -40.203125 -0.2421875 C-28.66851271 -10.25423097 -12.10259031 -7.21500576 0 0 Z " fill="#A5D204" transform="translate(211.25,29.9375)"/>
<path d="M0 0 C5.94493802 4.97691271 9.53617085 10.73694789 10.7890625 18.4140625 C11.31396671 24.99511079 11.34336853 30.43243872 6.97973633 35.79858398 C-3.74949748 47.20999091 -18.07985098 55.75716639 -33.98046875 56.28515625 C-42.7871327 55.9138608 -49.63892966 53.98790471 -56.1015625 47.8125 C-61.96091819 41.00590436 -63.45254644 32.7824881 -63.3984375 23.984375 C-62.2626032 18.10002053 -58.09594343 14.73151002 -53.79296875 10.84765625 C-53.26703125 10.2959375 -52.74109375 9.74421875 -52.19921875 9.17578125 C-39.55419428 -3.33472169 -15.65541309 -10.17241127 0 0 Z " fill="#A5D204" transform="translate(142.79296875,296.15234375)"/>
<path d="M0 0 C10.09251527 3.59459448 19.5371156 8.00858845 29 13 C29.9885498 13.51820313 29.9885498 13.51820313 30.99707031 14.046875 C44.90523954 21.40235473 58.62246252 30.04670968 70 41 C65 46 65 46 62.5625 48.25 C57.40045677 53.78975371 53.70056683 59.94851995 51 67 C46.71958789 65.55760248 43.79725289 63.40952034 40.3125 60.5625 C25.54712594 48.91852176 9.03351687 40.79241257 -8 33 C-7.34324424 28.2012051 -6.02767251 23.76506935 -4.5 19.1875 C-2.62085119 13.40825602 -1.41994425 8.08919167 -1 2 C-0.67 1.34 -0.34 0.68 0 0 Z " fill="#719300" transform="translate(349,231)"/>
<path d="M0 0 C0.55042969 0.19335938 1.10085937 0.38671875 1.66796875 0.5859375 C8.38056708 2.6881776 14.95097149 3.49769574 21.92578125 4.1015625 C23.38207947 4.23365112 23.38207947 4.23365112 24.86779785 4.3684082 C27.24483805 4.58337277 29.6221875 4.79378507 32 5 C31.98952637 6.21357178 31.97905273 7.42714355 31.96826172 8.67749023 C31.93152692 13.26421044 31.90890903 17.85091823 31.89013672 22.43774414 C31.88019904 24.40716757 31.86664424 26.37657673 31.84912109 28.34594727 C31.74184935 40.7295233 32.18515533 52.74110278 34 65 C33.18136475 65.29124756 32.36272949 65.58249512 31.51928711 65.88256836 C20.51595937 69.89314442 13.4999493 76.45319947 7 86 C6.34 86 5.68 86 5 86 C4.19485298 82.81575858 3.40864124 79.62709595 2.625 76.4375 C2.29242188 75.12362305 2.29242188 75.12362305 1.953125 73.78320312 C-1.41708682 59.95542229 -2.32928594 46.49139272 -2.26074219 32.32788086 C-2.24994279 29.67343693 -2.26074508 27.01965898 -2.2734375 24.36523438 C-2.27930759 15.99301797 -2.13003937 8.15669837 0 0 Z " fill="#719300" transform="translate(242,311)"/>
<path d="M0 0 C1.7405306 2.6107959 2.87230567 4.96108738 4.125 7.8125 C7.67375415 14.93076125 12.5655465 18.33840187 20 20.875 C21.32885425 21.26557541 22.66078095 21.64659497 24 22 C22.56828581 26.21858032 20.48945934 29.11852052 17.6875 32.5625 C12.4566803 39.11203018 7.96878887 46.07540943 3.55541992 53.19555664 C0.13040323 58.62323384 -2.85704354 62.53328698 -8.8125 65.3125 C-14.26393387 66.48829946 -18.30346321 65.8808941 -23.25 63.3125 C-27.30897793 59.89926856 -29.48926894 56.80458307 -30.9375 51.6875 C-31.08691598 42.87195729 -26.47218069 36.04059766 -21.625 29 C-21.01374268 28.09733398 -20.40248535 27.19466797 -19.77270508 26.26464844 C-5.72276153 5.72276153 -5.72276153 5.72276153 0 0 Z " fill="#709300" transform="translate(70,353)"/>
<path d="M0 0 C0.999694 3.11955344 0.94724504 5.04157533 0.0859375 8.18359375 C-3.87670002 24.53866175 -0.68751013 42.57239939 7.23828125 57.24609375 C12.82001919 65.97142689 19.48883358 71.89239785 28.75 76.3125 C37.60749466 78.18620079 46.14809442 77.73607003 54 73 C56.7881157 70.75379974 59.39503301 68.41397917 61.96875 65.92578125 C64 64 64 64 66 63 C62.8938259 75.24720074 55.29267956 84.2997892 44.98828125 91.3828125 C38.08480646 95.14356257 29.6326301 95.22167752 22 94 C9.89963288 90.21085647 2.53555347 81.96986687 -3.4609375 71.16796875 C-8.72468671 60.33319563 -10.19641108 50.32754226 -10.25 38.4375 C-10.270625 37.32052734 -10.29125 36.20355469 -10.3125 35.05273438 C-10.37297238 22.01337731 -7.24482045 10.86723067 0 0 Z " fill="#8DBE00" transform="translate(250,394)"/>
<path d="M0 0 C0.33 0.66 0.66 1.32 1 2 C0.2578125 3.8046875 0.2578125 3.8046875 -0.875 5.875 C-4.30813481 12.1890871 -5.18679709 18.55120632 -3.31640625 25.5625 C0.73025311 36.5774732 7.66826368 41.97954428 18.01074219 47.11645508 C26.40370431 50.84425698 34.13256342 51.44260041 43.25 51.3125 C44.3946875 51.31572266 45.539375 51.31894531 46.71875 51.32226562 C52.33798874 51.28632863 56.66539487 50.83898558 62 49 C64.375 49.375 64.375 49.375 66 50 C54.07262908 61.85901923 40.53321193 64.4523985 24.29638672 64.43383789 C9.7553495 64.16734436 -2.3913819 60.29766041 -13.0546875 50.01953125 C-20.29357854 42.2549946 -21.58640476 36.1337318 -21.34765625 25.59765625 C-20.8920235 20.8826252 -19.78806317 17.7844243 -17 14 C-16.59910156 13.41089844 -16.19820312 12.82179687 -15.78515625 12.21484375 C-11.60349762 6.69990266 -5.90053276 3.45422647 0 0 Z " fill="#8DBF00" transform="translate(37,184)"/>
<path d="M0 0 C1 3 1 3 -0.4375 6.375 C-4.40744941 16.4285293 -2.06565802 27.35755442 2 37 C8.17108014 49.0609465 16.53969824 55.87838631 29 61 C33.11807794 62.12979736 37.05583588 62.10228191 41.3125 62.0625 C42.56675781 62.05347656 43.82101563 62.04445312 45.11328125 62.03515625 C46.54220703 62.01775391 46.54220703 62.01775391 48 62 C42.70899795 69.1010817 36.50708303 73.48472631 27.625 75 C17.64511224 75.58084003 9.01148854 71.55324991 1 66 C0.0925 65.38125 -0.815 64.7625 -1.75 64.125 C-10.23966035 56.10698745 -16.31227655 44.8448454 -17.3359375 33.16796875 C-17.44953145 21.59274549 -15.92918808 13.3023987 -7.81640625 4.62890625 C-5.43634355 2.49452744 -2.96867463 1.15850717 0 0 Z " fill="#8DBF00" transform="translate(179,25)"/>
</svg>
